<?xml version="1.0" encoding="UTF-8" standalone="no"?>
<!-- Created with Inkscape (http://www.inkscape.org/) -->

<svg
   xmlns:dc="http://purl.org/dc/elements/1.1/"
   xmlns:cc="http://creativecommons.org/ns#"
   xmlns:rdf="http://www.w3.org/1999/02/22-rdf-syntax-ns#"
   xmlns:svg="http://www.w3.org/2000/svg"
   xmlns="http://www.w3.org/2000/svg"
   xmlns:sodipodi="http://sodipodi.sourceforge.net/DTD/sodipodi-0.dtd"
   xmlns:inkscape="http://www.inkscape.org/namespaces/inkscape"
   width="34.306404mm"
   height="90.386742mm"
   viewBox="0 0 34.306404 90.386742"
   version="1.1"
   id="svg8"
   inkscape:version="0.92.3 (2405546, 2018-03-11)"
   sodipodi:docname="oscar.svg"
   inkscape:export-filename="/mnt/data/Projects/bottleship/btl-lander/assets/oscar.png"
   inkscape:export-xdpi="11.240587"
   inkscape:export-ydpi="11.240587">
  <defs
     id="defs2" />
  <sodipodi:namedview
     id="base"
     pagecolor="#ffffff"
     bordercolor="#666666"
     borderopacity="1.0"
     inkscape:pageopacity="0.0"
     inkscape:pageshadow="2"
     inkscape:zoom="0.5"
     inkscape:cx="331.0339"
     inkscape:cy="219.20584"
     inkscape:document-units="mm"
     inkscape:current-layer="layer1"
     showgrid="false"
     fit-margin-top="0"
     fit-margin-left="0"
     fit-margin-right="0"
     fit-margin-bottom="0"
     inkscape:window-width="1920"
     inkscape:window-height="1046"
     inkscape:window-x="0"
     inkscape:window-y="18"
     inkscape:window-maximized="1" />
  <metadata
     id="metadata5">
    <rdf:RDF>
      <cc:Work
         rdf:about="">
        <dc:format>image/svg+xml</dc:format>
        <dc:type
           rdf:resource="http://purl.org/dc/dcmitype/StillImage" />
        <dc:title></dc:title>
      </cc:Work>
    </rdf:RDF>
  </metadata>
  <g
     inkscape:label="Layer 1"
     inkscape:groupmode="layer"
     id="layer1"
     transform="translate(-169.75882,-88.08494)">
    <path
       style="fill:#ffd700;stroke-width:1"
       d="m 178.52779,178.29034 c -2.44505,-0.25294 -6.8489,-1.22792 -7.82406,-1.73219 -1.19515,-0.61804 -1.23392,-1.22162 -0.24452,-3.80708 0.74788,-1.95431 1.51642,-2.58607 4.27622,-3.51512 0.55365,-0.18638 0.61736,-0.79149 0.61736,-5.86334 0,-3.53516 -0.13226,-5.65552 -0.35278,-5.65552 -0.53351,0 -0.6269,-0.60777 -0.23567,-0.97405 0.15542,-0.14552 0.52659,-0.16935 0.76484,-0.22915 0.79202,-0.19878 0.88194,-0.39925 0.88194,-1.96611 0,-2.13634 0.4259,-2.43359 3.90479,-2.72525 3.00976,-0.25232 3.0094,-0.25148 2.61039,-6.04884 -0.15551,-2.25939 -0.30563,-6.48924 -0.3336,-9.39965 -0.031,-3.22608 -0.23421,-5.91135 -0.52056,-6.87917 -0.53733,-1.81602 -0.67924,-7.60064 -0.26569,-10.82978 0.2757,-2.1528 0.26144,-2.20754 -0.91923,-3.52778 -1.79405,-2.00613 -2.00551,-2.61519 -2.01922,-5.81577 -0.007,-1.61349 -0.23466,-3.86339 -0.50611,-4.99978 -0.50479,-2.11327 -0.32063,-3.39272 0.57359,-3.98498 0.24817,-0.16437 1.64702,-0.938231 3.10857,-1.71969 3.05195,-1.63182 3.14574,-1.841927 2.48408,-5.564675 -0.52327,-2.944115 -0.12036,-4.246898 1.48673,-4.80713 1.34957,-0.470464 2.72622,0.119536 3.35888,1.439545 0.3638,0.759052 0.34993,1.428544 -0.0757,3.653239 -0.36463,1.905736 -0.41399,2.924121 -0.16435,3.390574 0.19624,0.366686 1.34302,1.162327 2.54838,1.768091 1.20537,0.605764 2.64586,1.422206 3.20109,1.814316 0.96508,0.68155 0.99929,0.7999 0.77737,2.68935 -0.12768,1.08702 -0.36645,3.80204 -0.53061,6.03336 -0.16416,2.23132 -0.31554,4.10018 -0.3364,4.15302 -0.0208,0.0528 -0.6916,0.80523 -1.49053,1.67197 l -1.45261,1.57589 0.24832,2.31881 c 0.38848,3.62755 0.26468,9.44862 -0.22532,10.59442 -0.28442,0.66509 -0.44804,2.96254 -0.4627,6.497 -0.0125,3.00743 -0.22808,7.13493 -0.47913,9.17222 -0.28765,2.33424 -0.34479,4.22605 -0.15452,5.11528 0.27534,1.28674 0.40956,1.41989 1.5229,1.51075 0.67152,0.0548 2.05438,0.26449 3.07303,0.46598 l 1.85208,0.36635 v 1.83792 c 0,1.74734 0.0565,1.8598 1.14653,2.2817 0.30923,0.11969 0.46309,0.1549 0.54601,0.3107 0.19831,0.37257 -0.11937,0.88294 -0.48461,0.9033 0,0 -0.14964,0.83375 -0.14964,5.59625 v 5.43405 l 2.12497,0.93918 c 1.87607,0.82917 2.21164,1.13509 2.86482,2.61172 0.40691,0.91989 0.76036,2.16193 0.78544,2.76009 0.0434,1.03572 -0.0637,1.12386 -2.24745,1.84889 -1.26118,0.41872 -3.7218,0.93421 -5.46805,1.14553 -2.90508,0.35155 -14.87835,0.44938 -17.81528,0.14556 z"
       id="path867"
       inkscape:connector-curvature="0"
       sodipodi:nodetypes="ccccssscscccccsccccscccccscscccccccccccssscscccccccc" />
  </g>
</svg>
