<?xml version="1.0" encoding="UTF-8" standalone="no"?>
<!-- Created with Inkscape (http://www.inkscape.org/) -->

<svg
   xmlns:dc="http://purl.org/dc/elements/1.1/"
   xmlns:cc="http://creativecommons.org/ns#"
   xmlns:rdf="http://www.w3.org/1999/02/22-rdf-syntax-ns#"
   xmlns:svg="http://www.w3.org/2000/svg"
   xmlns="http://www.w3.org/2000/svg"
   xmlns:sodipodi="http://sodipodi.sourceforge.net/DTD/sodipodi-0.dtd"
   xmlns:inkscape="http://www.inkscape.org/namespaces/inkscape"
   width="640"
   height="200"
   viewBox="0 0 169.33333 52.916666"
   version="1.1"
   id="svg8"
   sodipodi:docname="planet.svg"
   inkscape:version="0.92.3 (2405546, 2018-03-11)"
   inkscape:export-filename="/mnt/data/Projects/bottleship/btl-lander/assets/planet.png"
   inkscape:export-xdpi="96"
   inkscape:export-ydpi="96">
  <defs
     id="defs2" />
  <sodipodi:namedview
     id="base"
     pagecolor="#282828"
     bordercolor="#666666"
     borderopacity="1.0"
     inkscape:pageopacity="0"
     inkscape:pageshadow="2"
     inkscape:zoom="1"
     inkscape:cx="250.61017"
     inkscape:cy="18.584129"
     inkscape:document-units="px"
     inkscape:current-layer="layer1"
     showgrid="false"
     inkscape:window-width="1920"
     inkscape:window-height="1046"
     inkscape:window-x="0"
     inkscape:window-y="18"
     inkscape:window-maximized="1"
     units="px"
     inkscape:snap-global="true"
     inkscape:snap-page="true"
     borderlayer="true">
    <inkscape:grid
       type="xygrid"
       id="grid865" />
  </sodipodi:namedview>
  <metadata
     id="metadata5">
    <rdf:RDF>
      <cc:Work
         rdf:about="">
        <dc:format>image/svg+xml</dc:format>
        <dc:type
           rdf:resource="http://purl.org/dc/dcmitype/StillImage" />
        <dc:title></dc:title>
      </cc:Work>
    </rdf:RDF>
  </metadata>
  <g
     inkscape:label="Layer 1"
     inkscape:groupmode="layer"
     id="layer1"
     transform="translate(0,-244.08334)">
    <path
       style="color:#000000;clip-rule:nonzero;display:inline;overflow:visible;visibility:visible;opacity:1;isolation:auto;mix-blend-mode:normal;color-interpolation:sRGB;color-interpolation-filters:linearRGB;solid-color:#000000;solid-opacity:1;fill:#1f1f1f;fill-opacity:1;fill-rule:nonzero;stroke:none;stroke-width:0.25;stroke-linecap:round;stroke-linejoin:round;stroke-miterlimit:4;stroke-dasharray:none;stroke-dashoffset:0;stroke-opacity:1;color-rendering:auto;image-rendering:auto;shape-rendering:auto;text-rendering:auto;enable-background:accumulate"
       d="m -0.18708867,281.28456 v 16.83798 H 170.25069 v -14.59292 c -1.25362,0.0137 -3.42347,-0.29431 -5.14708,-0.1546 -0.27052,-0.22627 -0.26702,-0.87976 -0.68128,-0.96182 -1.43054,-0.28336 -2.85558,-0.30396 -4.41472,-0.46934 -0.28998,-0.0308 -1.42001,0.66633 -1.70233,0.63627 -1.388,-0.14778 -2.15709,-0.13774 -3.38482,-0.28795 -0.3184,-0.039 -0.51346,-0.57156 -0.81535,-0.60512 -0.96198,-0.10694 -1.02206,0.0546 -1.83637,0.001 -0.1697,-0.0112 -0.76549,0.62294 -0.92717,0.61256 -1.63084,-0.10474 -2.40974,0.0974 -2.91251,0.11885 -0.98936,-0.24093 -0.95528,-3.26684 -1.84948,-3.45236 -2.57913,-0.53512 -2.12657,-0.90617 -4.77221,-0.51124 -1.35354,0.20205 -0.21333,3.42116 -1.95867,3.52906 -1.92415,0.11896 -7.37031,0.2751 -10.08572,0.0125 -0.79644,-0.077 -0.56335,-0.67585 -0.39487,-1.70889 -1.18844,0.53097 -3.09832,-2.30384 -4.07542,-2.53043 -1.58093,-0.36662 -2.0572,0.8265 -3.07223,1.67073 -0.25316,0.21055 -0.84686,0.13622 -1.14164,0.31738 -1.45834,0.89622 -1.3572,2.5397 -4.40352,1.47246 -2.96823,1.14276 -3.47668,-3.47707 -6.01803,-2.32265 -0.8567,0.38916 -1.18939,0.84037 -2.11204,1.00715 -0.4236,0.0766 -0.38843,-0.66346 -0.8287,-0.62703 -2.00161,0.16562 -3.51916,0.27825 -5.79763,0.0656 -0.72657,-0.0678 -1.1997,1.20443 -1.96819,1.11271 -1.45286,-0.1734 -3.470386,-0.21391 -4.997538,-0.64018 -1.112061,-0.31041 -0.747812,-1.13423 -1.677516,-1.45795 -1.005883,-0.35025 -3.29507,-0.18688 -4.227573,-0.13444 -0.744432,0.45625 -0.601106,1.13654 -1.648966,1.32543 -2.252532,0.40603 -4.578789,0.18185 -8.076679,0.75441 -0.722892,0.11832 -1.119667,-0.60657 -1.680697,-0.60644 -2.350284,5.6e-4 -4.910126,-0.29674 -6.9689,0.93353 -3.677526,-1.22741 -6.857658,-1.67452 -11.66354,-1.16796 -1.338542,-0.006 -3.399138,0.50614 -4.562584,0.34542 -1.103015,-0.15237 -1.730688,-0.60645 -2.953216,-0.52699 -1.389681,0.0903 -1.321931,1.24028 -4.715708,1.05884 -0.937931,-0.0501 -0.573811,-1.79833 -2.246691,-2.01977 -1.855527,-0.24562 -3.659038,-0.41958 -5.352838,-0.0595 -0.327252,0.0696 0.07053,1.14532 -0.315298,1.12987 -5.220995,-0.20894 -11.960396,-0.48775 -16.335367,0.183 -1.202438,0.15117 -0.179722,-1.49475 -1.335668,-1.45123 -1.613539,0.0608 -3.44367,-0.32038 -4.873302,0.28201 -0.56143,0.23656 -0.467711,1.73245 -1.169616,1.79612 -2.479282,0.2249 -5.3171664,0.10829 -8.0850936,0.14835 -0.070782,-1.27205 -4.7572221,-2.40623 -6.87683074,-1.68172 z"
       id="path888"
       inkscape:connector-curvature="0"
       sodipodi:nodetypes="cccccsscsssscsssscssscssssssscsssccsssssscsssccc" />
    <path
       style="color:#000000;clip-rule:nonzero;display:inline;overflow:visible;visibility:visible;opacity:1;isolation:auto;mix-blend-mode:normal;color-interpolation:sRGB;color-interpolation-filters:linearRGB;solid-color:#000000;solid-opacity:1;fill:#ffffff;fill-opacity:1;fill-rule:nonzero;stroke:none;stroke-width:0.25;stroke-linecap:round;stroke-linejoin:round;stroke-miterlimit:4;stroke-dasharray:none;stroke-dashoffset:0;stroke-opacity:1;color-rendering:auto;image-rendering:auto;shape-rendering:auto;text-rendering:auto;enable-background:accumulate"
       id="path836"
       d="m 148.22399,283.9736 c -0.26963,-0.36005 -0.46249,-0.76762 -0.59315,-1.19637 -0.0942,-0.41493 -0.1378,-0.83946 -0.22825,-1.25512 -0.0597,-0.28536 -0.16774,-0.55655 -0.28346,-0.82288 -0.0899,-0.19967 -0.13498,-0.41434 -0.21477,-0.61808 -0.0915,-0.24435 -0.26457,-0.42896 -0.45599,-0.59869 -0.26017,-0.22364 -0.56807,-0.30864 -0.89926,-0.36242 -0.39537,-0.053 -0.78803,-0.11729 -1.18605,-0.14945 -0.3879,-0.0192 -0.77337,-0.023 -1.1588,-0.0725 -0.36511,-0.0499 -0.72369,-0.13313 -1.08952,-0.1817 -0.18077,-0.0114 -0.36537,-0.0746 -0.53098,0.0134 -0.31814,0.11576 -0.15188,0.0589 0.67979,-0.39472 0.0233,-0.0127 -0.0428,0.0315 -0.0636,0.0481 -0.0764,0.0607 -0.14356,0.12219 -0.20726,0.19606 -0.15071,0.19879 -0.24284,0.43476 -0.3233,0.66897 -0.10734,0.30225 -0.26455,0.58346 -0.39997,0.87343 -0.14826,0.38644 -0.28373,0.77811 -0.4151,1.17061 -0.16157,0.50875 -0.30344,1.02115 -0.5214,1.50948 -0.2287,0.4778 -0.56706,0.88733 -0.91461,1.2822 0.13963,0.33181 -0.69833,0.68444 -0.83797,0.35263 v 0 c 0.35131,-0.3875 0.69418,-0.78964 0.93125,-1.25972 0.22504,-0.48209 0.36459,-0.99153 0.52166,-1.49849 0.12702,-0.39548 0.26895,-0.78639 0.40766,-1.17792 0.12686,-0.29044 0.2863,-0.5665 0.40028,-0.86266 0.075,-0.24144 0.16807,-0.48422 0.30841,-0.69535 0.25539,-0.38736 0.78062,-0.59643 1.15962,-0.78075 0.18077,-0.0444 0.36987,0.0179 0.55174,0.0283 0.36378,0.0539 0.72192,0.13769 1.08693,0.18168 0.38424,0.0457 0.76998,0.0426 1.15569,0.0704 0.39944,0.0357 0.79434,0.10056 1.19139,0.15553 0.34341,0.0644 0.66325,0.16652 0.93031,0.40265 0.20017,0.17991 0.38195,0.3781 0.47897,0.63422 0.0823,0.20221 0.12951,0.41463 0.21354,0.6158 0.11725,0.27219 0.22622,0.54961 0.28752,0.84071 0.0913,0.41356 0.13215,0.83671 0.22209,1.25059 0.12377,0.41804 0.3086,0.81775 0.58206,1.16039 0.18673,0.31101 -0.5987,0.78259 -0.78544,0.47157 z"
       inkscape:connector-curvature="0" />
    <path
       style="color:#000000;clip-rule:nonzero;display:inline;overflow:visible;visibility:visible;opacity:1;isolation:auto;mix-blend-mode:normal;color-interpolation:sRGB;color-interpolation-filters:linearRGB;solid-color:#000000;solid-opacity:1;fill:#ffffff;fill-opacity:1;fill-rule:nonzero;stroke:none;stroke-width:0.25;stroke-linecap:round;stroke-linejoin:round;stroke-miterlimit:4;stroke-dasharray:none;stroke-dashoffset:0;stroke-opacity:1;color-rendering:auto;image-rendering:auto;shape-rendering:auto;text-rendering:auto;enable-background:accumulate"
       id="path838"
       d="m 139.18761,282.38177 c -0.72395,-0.0682 -1.45073,-0.0952 -2.17729,-0.11608 -0.86014,-0.0402 -1.71854,-0.009 -2.57735,0.039 -0.59172,0.0385 -1.18428,0.0601 -1.7771,0.0705 -0.42331,0.006 -0.84669,0.006 -1.27004,0.006 -0.30308,0.005 -0.60071,-0.0659 -0.90103,-0.0999 -0.30191,-0.0701 -0.60702,-0.11913 -0.91583,-0.144 -0.20064,-0.0416 -0.40075,-0.058 -0.60496,-0.065 -0.20987,-0.29167 0.52671,-0.82166 0.73657,-0.52999 v 0 c 0.20563,0.0118 0.40833,0.0319 0.6118,0.0647 0.30961,0.0291 0.61389,0.0868 0.9191,0.14527 0.29643,0.0374 0.59135,0.10324 0.89161,0.0933 0.42169,8e-4 0.84339,10e-4 1.26505,-0.005 0.58878,-0.0104 1.17725,-0.0311 1.76514,-0.0658 0.85978,-0.0445 1.7192,-0.0697 2.58005,-0.0318 0.73201,0.0217 1.46324,0.0566 2.19422,0.10056 0.21288,0.293 -0.52706,0.8306 -0.73994,0.5376 z"
       inkscape:connector-curvature="0" />
    <path
       style="color:#000000;clip-rule:nonzero;display:inline;overflow:visible;visibility:visible;opacity:1;isolation:auto;mix-blend-mode:normal;color-interpolation:sRGB;color-interpolation-filters:linearRGB;solid-color:#000000;solid-opacity:1;fill:#ffffff;fill-opacity:1;fill-rule:nonzero;stroke:none;stroke-width:0.25;stroke-linecap:round;stroke-linejoin:round;stroke-miterlimit:4;stroke-dasharray:none;stroke-dashoffset:0;stroke-opacity:1;color-rendering:auto;image-rendering:auto;shape-rendering:auto;text-rendering:auto;enable-background:accumulate"
       id="path840"
       d="m 129.19887,283.15261 c -0.19474,-0.50296 -0.34187,-1.02439 -0.47166,-1.54759 -0.11684,-0.38846 -0.19528,-0.78699 -0.32499,-1.17153 -0.0896,-0.21853 -0.18741,-0.43755 -0.30753,-0.64152 -0.0668,-0.14077 -0.14667,-0.27351 -0.236,-0.40098 -0.0108,-0.007 -0.0204,-0.0168 -0.0324,-0.0219 -0.0975,-0.0412 -0.43687,0.19175 -0.27918,0.10336 0.21998,-0.12329 0.43784,-0.25032 0.65675,-0.37548 -0.25933,0.14794 -0.47664,0.34885 -0.69727,0.54653 -0.34225,0.28993 -0.82155,0.82948 -1.21334,0.44858 -0.16961,-0.24089 -0.38075,-0.44815 -0.55176,-0.68721 -0.14871,-0.20875 -0.25738,-0.44214 -0.37814,-0.66734 -0.1847,-0.26111 -0.34046,-0.54292 -0.53255,-0.79861 -0.17928,-0.27424 -0.31023,-0.37904 -0.64233,-0.33818 -0.19751,0.097 -0.95422,0.47159 0.51213,-0.29543 0.0562,-0.0294 -0.10614,0.0693 -0.15789,0.10592 -0.167,0.11805 -0.32279,0.24912 -0.47833,0.38157 -0.28225,0.24684 -0.48991,0.55466 -0.67226,0.8787 -0.13919,0.29855 -0.34077,0.54086 -0.59381,0.74746 -0.54472,0.43694 -0.98577,0.65109 -1.62322,0.70394 -0.14902,0.0132 -0.29862,-7.9e-4 -0.44561,0.0335 -0.29245,0.068 -0.90831,0.46932 0.37551,-0.25956 -0.24239,0.13389 -0.46936,0.29206 -0.68351,0.46707 -0.11474,0.10036 -0.23522,0.19584 -0.32247,0.32201 -0.0558,0.12517 -0.1063,0.24691 -0.19819,0.35093 -0.34172,0.32912 -0.78288,0.54919 -1.22695,0.70988 -0.31434,0.0629 -0.63108,0.11638 -0.94839,0.16381 -0.21743,0.0417 -0.43242,0.0947 -0.64662,0.15032 -0.22044,-0.28824 0.50747,-0.84492 0.7279,-0.55669 v 0 c 0.2146,-0.0519 0.42972,-0.10216 0.6473,-0.1402 0.31528,-0.0501 0.63488,-0.0945 0.94156,-0.1835 0.82474,-0.34054 -1.0817,0.7151 -0.34577,0.20843 0.10627,-0.0917 0.17299,-0.19404 0.20685,-0.33186 0.0809,-0.14056 0.18796,-0.24796 0.31501,-0.34969 0.21085,-0.18244 0.43721,-0.34639 0.68062,-0.48308 0.79318,-0.45301 0.88974,-0.62533 1.65669,-0.64543 0.15154,-0.0167 0.30199,-0.0328 0.44751,-0.0815 0.0429,-0.0144 0.16372,-0.0755 0.12555,-0.0513 -0.17372,0.1103 -0.97437,0.57842 -0.53217,0.31288 0.25619,-0.19631 0.47512,-0.41445 0.60993,-0.71464 0.17806,-0.33308 0.38343,-0.65022 0.66167,-0.90962 0.50125,-0.43713 1.06453,-0.87953 1.70406,-1.07589 0.34772,0.001 0.50547,0.12666 0.6903,0.41473 0.19221,0.26119 0.35413,0.54401 0.54213,0.80833 0.12005,0.22126 0.22437,0.45259 0.37124,0.65799 0.16696,0.23354 0.37091,0.43867 0.54372,0.66812 0.0224,0.0175 0.0417,0.0399 0.0672,0.0524 0.024,0.0117 0.0996,0.003 0.0779,0.0185 -1.2534,0.90402 -0.81906,0.52499 -0.56053,0.3102 0.22509,-0.19611 0.43407,-0.40946 0.69358,-0.56271 0.30339,-0.17631 0.60502,-0.35567 0.91017,-0.52892 0.13403,-0.0761 0.28195,-0.0965 0.39218,0.0267 0.0873,0.13116 0.1694,0.26512 0.23665,0.40783 0.12284,0.20953 0.21878,0.43722 0.31073,0.66126 0.13138,0.38739 0.20783,0.7895 0.32275,1.18181 0.12368,0.5185 0.26525,1.03783 0.4743,1.52885 0.17769,0.31638 -0.6213,0.76511 -0.79898,0.44873 z"
       inkscape:connector-curvature="0" />
    <path
       style="color:#000000;clip-rule:nonzero;display:inline;overflow:visible;visibility:visible;opacity:1;isolation:auto;mix-blend-mode:normal;color-interpolation:sRGB;color-interpolation-filters:linearRGB;solid-color:#000000;solid-opacity:1;fill:#ffffff;fill-opacity:1;fill-rule:nonzero;stroke:none;stroke-width:0.25;stroke-linecap:round;stroke-linejoin:round;stroke-miterlimit:4;stroke-dasharray:none;stroke-dashoffset:0;stroke-opacity:1;color-rendering:auto;image-rendering:auto;shape-rendering:auto;text-rendering:auto;enable-background:accumulate"
       id="path844"
       d="m 78.582479,281.93996 c 0.07995,-0.34267 0.155768,-0.68606 0.2104,-1.03376 0.02455,-0.17838 0.03301,-0.39382 -0.09241,-0.53699 -0.167135,-0.10253 -0.347366,-0.17946 -0.528913,-0.25216 -0.239564,-0.0859 -0.4944,-0.10101 -0.746275,-0.11182 -0.397045,-0.006 -0.794679,-0.0214 -1.1908,0.01 -0.475181,0.0569 -0.952579,0.0851 -1.430639,0.10142 -0.553395,0.021 -1.107721,-0.004 -1.660356,0.0319 -0.495109,0.0186 -0.979995,0.11856 -1.469485,0.18525 -0.288885,0.0573 -0.566507,0.1491 -0.844603,0.24358 0.165322,-0.13957 -0.485479,0.26576 -0.262797,0.13769 1.396108,-0.80297 0.856276,-0.54347 0.626835,-0.34174 -0.117327,0.12757 -0.125087,0.29429 -0.136049,0.45864 -0.0078,0.17119 -0.0069,0.34261 -0.0052,0.51392 0.0073,0.0541 0.04718,0.0882 0.0823,0.12622 0.188722,0.31193 -0.599019,0.78853 -0.787741,0.4766 v 0 c -0.04836,-0.0558 -0.09904,-0.10931 -0.114898,-0.18426 -1.61e-4,-0.17357 -2.59e-4,-0.34721 0.0063,-0.52068 0.0075,-0.17574 0.0048,-0.36118 0.107529,-0.5124 0.264112,-0.38821 0.791702,-0.51939 1.207328,-0.71648 0.278342,-0.0925 0.558731,-0.1784 0.849069,-0.22552 0.488733,-0.0682 0.97468,-0.15902 1.469237,-0.17609 0.553979,-0.0277 1.109059,-0.009 1.663361,-0.0317 0.477904,-0.0188 0.954468,-0.0534 1.430049,-0.10458 0.400447,-0.0235 0.801899,-0.0152 1.202798,-0.005 0.260044,0.0143 0.521751,0.0386 0.766117,0.13588 0.19249,0.0805 0.391174,0.1575 0.555393,0.28932 0.133066,0.17078 0.156651,0.39647 0.125732,0.60712 -0.05699,0.34637 -0.129421,0.68971 -0.209402,1.03149 0.160256,0.32586 -0.66268,0.73057 -0.822936,0.4047 z"
       inkscape:connector-curvature="0" />
    <path
       style="color:#000000;clip-rule:nonzero;display:inline;overflow:visible;visibility:visible;opacity:1;isolation:auto;mix-blend-mode:normal;color-interpolation:sRGB;color-interpolation-filters:linearRGB;solid-color:#000000;solid-opacity:1;fill:#ffffff;fill-opacity:1;fill-rule:nonzero;stroke:none;stroke-width:0.25;stroke-linecap:round;stroke-linejoin:round;stroke-miterlimit:4;stroke-dasharray:none;stroke-dashoffset:0;stroke-opacity:1;color-rendering:auto;image-rendering:auto;shape-rendering:auto;text-rendering:auto;enable-background:accumulate"
       id="path846"
       d="m 77.184961,280.59246 c -0.292103,0.12553 -0.921658,0.47977 0.338584,-0.21876 0.0451,-0.025 -0.08807,0.0538 -0.12991,0.084 -0.05846,0.0421 -0.156676,0.12912 -0.211918,0.17693 -0.486386,0.4524 -0.976252,0.64029 -1.585746,0.68065 -0.399462,0.0147 -0.799354,0.0112 -1.199015,0.01 -0.436496,-0.001 -0.872992,-0.003 -1.309491,-0.003 -0.362982,0.008 -0.722951,-0.0542 -1.082239,-0.0986 -0.124584,-0.0163 -0.249999,-0.0274 -0.375624,-0.0311 -0.0061,-4e-5 -0.0123,-8e-5 -0.01844,-1.2e-4 -0.213931,-0.2971 0.536353,-0.83736 0.750284,-0.54026 v 0 c 0.0062,5.3e-4 0.01233,0.001 0.0185,0.001 0.124777,0.01 0.249385,0.0226 0.373194,0.0412 0.354375,0.0482 0.70997,0.1045 1.06879,0.0939 0.436962,8e-4 0.873924,2.7e-4 1.310883,0.002 0.399116,8e-4 0.798741,0.006 1.197359,-0.0177 0.153337,-0.014 0.307851,-0.0253 0.455348,-0.0735 0.04163,-0.0136 0.15884,-0.0727 0.121759,-0.0494 -1.31553,0.82657 -0.798471,0.4803 -0.573736,0.32843 0.07122,-0.061 0.136403,-0.12896 0.209449,-0.18773 0.405022,-0.32587 0.888929,-0.55194 1.360946,-0.76653 0.224993,0.28469 -0.493956,0.85289 -0.718953,0.5682 z"
       inkscape:connector-curvature="0" />
    <path
       style="color:#000000;clip-rule:nonzero;display:inline;overflow:visible;visibility:visible;opacity:1;isolation:auto;mix-blend-mode:normal;color-interpolation:sRGB;color-interpolation-filters:linearRGB;solid-color:#000000;solid-opacity:1;fill:#ffffff;fill-opacity:1;fill-rule:nonzero;stroke:none;stroke-width:0.25;stroke-linecap:round;stroke-linejoin:round;stroke-miterlimit:4;stroke-dasharray:none;stroke-dashoffset:0;stroke-opacity:1;color-rendering:auto;image-rendering:auto;shape-rendering:auto;text-rendering:auto;enable-background:accumulate"
       id="path848"
       d="m 70.022481,280.75284 c -0.445738,-0.16126 -0.899946,-0.30014 -1.355164,-0.43232 -0.461891,-0.1207 -0.927632,-0.22286 -1.394291,-0.32318 -0.419319,-0.0792 -0.844669,-0.10404 -1.266243,-0.16741 -0.462624,-0.0505 -0.921326,-0.12722 -1.384554,-0.17328 -0.509955,-0.0444 -1.022098,-0.0506 -1.533636,-0.0552 -0.440539,-0.0245 -0.875829,0.0199 -1.313233,0.0628 -0.45153,0.0469 -0.905621,0.0582 -1.359183,0.0659 -0.428731,0.0129 -0.858292,-0.0115 -1.285967,0.023 -0.499745,0.0548 -1.001509,0.0824 -1.503791,0.0987 -0.416092,0.0264 -0.835753,-0.0104 -1.250199,0.0354 -0.330253,0.0447 -0.65967,0.0748 -0.985901,0.14326 -0.330398,0.0715 -0.669216,0.0847 -1.005948,0.0948 -0.496851,-0.003 -0.965335,-0.15968 -1.438508,-0.29026 -0.394438,-0.11249 -0.798714,-0.23925 -1.214991,-0.21337 -0.09643,0.006 -0.190912,0.0299 -0.286369,0.0448 -0.213831,-0.28635 0.509313,-0.82636 0.723143,-0.54001 v 0 c 0.09832,-0.0106 0.196107,-0.0294 0.294969,-0.0317 0.420986,-0.0102 0.827354,0.11866 1.227793,0.22939 0.468807,0.12914 0.93675,0.27342 1.429065,0.26311 0.335063,-0.0137 0.670981,-0.0337 0.999077,-0.10834 0.327504,-0.0639 0.659691,-0.0906 0.990338,-0.13406 0.415084,-0.0292 0.832239,-0.007 1.247902,-0.0275 0.502486,-0.0184 1.003962,-0.051 1.504188,-0.10296 0.429059,-0.0253 0.859049,-0.009 1.288659,-0.0192 0.452249,-0.009 0.904748,-0.0234 1.35483,-0.0718 0.438817,-0.0441 0.876483,-0.0763 1.318088,-0.054 0.512982,0.006 1.026597,0.015 1.537751,0.0624 0.464754,0.0487 0.926272,0.12176 1.390578,0.17411 0.422294,0.0621 0.849265,0.0862 1.26777,0.1737 0.467246,0.10257 0.934402,0.204 1.396111,0.32983 0.456586,0.13565 0.911397,0.27732 1.364128,0.42536 0.205131,0.29953 -0.551283,0.81756 -0.756412,0.51804 z"
       inkscape:connector-curvature="0" />
    <path
       style="color:#000000;clip-rule:nonzero;display:inline;overflow:visible;visibility:visible;opacity:1;isolation:auto;mix-blend-mode:normal;color-interpolation:sRGB;color-interpolation-filters:linearRGB;solid-color:#000000;solid-opacity:1;fill:#ffffff;fill-opacity:1;fill-rule:nonzero;stroke:none;stroke-width:0.25;stroke-linecap:round;stroke-linejoin:round;stroke-miterlimit:4;stroke-dasharray:none;stroke-dashoffset:0;stroke-opacity:1;color-rendering:auto;image-rendering:auto;shape-rendering:auto;text-rendering:auto;enable-background:accumulate"
       id="path850"
       d="m 51.108231,279.45096 c -0.131403,-0.003 -0.221139,-0.0112 -0.353489,0.0157 -0.33116,0.0672 -1.289462,0.63516 -0.03651,-0.0686 -0.339865,0.23131 -0.599355,0.54148 -0.832602,0.87437 -0.111281,0.15672 -0.202673,0.32472 -0.249597,0.51155 -0.01154,0.11607 0.02984,0.22326 0.02204,0.34246 -0.0013,0.17057 -0.08116,0.27401 -0.20814,0.37966 -0.294002,0.16879 -0.588007,0.33758 -0.88201,0.50636 -0.227274,-0.2833 0.488191,-0.85726 0.715466,-0.57395 v 0 c -0.228981,0.13513 -0.457965,0.27026 -0.686946,0.40539 0.125087,-0.0779 0.234762,-0.14939 0.23563,-0.30777 0.0199,-0.12662 -0.02098,-0.22713 -0.02461,-0.35047 0.03169,-0.20143 0.127833,-0.38182 0.240556,-0.54974 0.241353,-0.33464 0.483322,-0.66438 0.823611,-0.90979 0.619024,-0.36213 1.230752,-0.86265 1.986089,-0.80364 0.209257,0.29679 -0.540236,0.82524 -0.749495,0.52846 z"
       inkscape:connector-curvature="0" />
    <path
       style="color:#000000;clip-rule:nonzero;display:inline;overflow:visible;visibility:visible;opacity:1;isolation:auto;mix-blend-mode:normal;color-interpolation:sRGB;color-interpolation-filters:linearRGB;solid-color:#000000;solid-opacity:1;fill:#ffffff;fill-opacity:1;fill-rule:nonzero;stroke:none;stroke-width:0.25;stroke-linecap:round;stroke-linejoin:round;stroke-miterlimit:4;stroke-dasharray:none;stroke-dashoffset:0;stroke-opacity:1;color-rendering:auto;image-rendering:auto;shape-rendering:auto;text-rendering:auto;enable-background:accumulate"
       id="path852"
       d="m 49.006836,280.32787 c -0.297368,0.13374 -0.604599,0.23928 -0.9256,0.29654 -0.310771,0.096 -0.634685,0.12715 -0.957442,0.15075 -0.327308,-0.024 -0.652592,-0.0675 -0.980088,-0.091 -0.159933,-0.0181 -0.334748,0.0309 -0.440822,-0.1072 -0.09029,-0.18152 -0.05809,-0.37284 -0.02016,-0.56254 0.03738,-0.18962 0.08501,-0.32494 -0.01421,-0.49825 -0.137954,-0.10652 -0.270851,-0.22846 -0.416822,-0.32671 -0.157154,-0.11856 -0.297352,-0.25587 -0.453059,-0.37757 -0.204581,-0.12735 -0.417761,-0.1922 -0.65442,-0.23031 -0.354976,-0.0419 -0.713579,-0.0378 -1.070468,-0.0403 -0.518887,-10e-4 -1.037785,-7.7e-4 -1.556673,6e-4 -0.456816,-0.0359 -0.912172,-0.0841 -1.369862,-0.10886 -0.349572,-0.003 -0.703617,-0.0474 -1.051388,-10e-4 -0.1304,0.004 -0.239834,0.0606 -0.3547,0.11327 -0.02959,0.0136 -0.117679,0.0553 -0.08957,0.0389 0.792046,-0.46256 0.917702,-0.57418 0.651092,-0.351 -0.115639,0.11936 -0.112279,0.24155 -0.07813,0.39288 0.05362,0.16101 0.03438,0.31546 -0.0016,0.47632 -0.03043,0.10131 -0.02959,0.0925 0.04822,0.16259 0.191836,0.30969 -0.590251,0.79415 -0.782088,0.48446 v 0 c -0.08451,-0.0773 -0.144867,-0.13301 -0.0962,-0.24832 0.03781,-0.14925 0.07711,-0.28674 0.02215,-0.43887 -0.04084,-0.16996 -0.07122,-0.32166 0.03997,-0.47399 0.282223,-0.38512 0.889296,-0.62179 1.375021,-0.70099 0.351192,-0.0251 0.704004,0.005 1.055346,0.0161 0.455645,0.0271 0.908929,0.0799 1.364517,0.10624 0.519616,1.2e-4 1.039228,-0.002 1.558843,-0.001 0.361786,0.001 0.726181,-0.003 1.085025,0.0489 0.246216,0.0473 0.47263,0.12558 0.682649,0.26585 0.152961,0.12198 0.291092,0.26002 0.450141,0.37333 0.152048,0.11095 0.305842,0.22881 0.438684,0.36041 0.115858,0.20096 0.09217,0.33566 0.04348,0.55758 -0.03297,0.16331 -0.08423,0.32582 -0.01534,0.48805 0.08669,0.083 0.29079,0.007 0.393498,0.0508 0.323721,0.0262 0.646097,0.075 0.970958,0.0801 0.32213,-0.0273 0.64103,-0.0729 0.953026,-0.16045 0.316847,-0.0673 0.620342,-0.17897 0.915109,-0.31297 0.224994,0.28469 -0.493956,0.85289 -0.718952,0.5682 z"
       inkscape:connector-curvature="0" />
    <path
       style="color:#000000;clip-rule:nonzero;display:inline;overflow:visible;visibility:visible;opacity:1;isolation:auto;mix-blend-mode:normal;color-interpolation:sRGB;color-interpolation-filters:linearRGB;solid-color:#000000;solid-opacity:1;fill:#ffffff;fill-opacity:1;fill-rule:nonzero;stroke:none;stroke-width:0.25;stroke-linecap:round;stroke-linejoin:round;stroke-miterlimit:4;stroke-dasharray:none;stroke-dashoffset:0;stroke-opacity:1;color-rendering:auto;image-rendering:auto;shape-rendering:auto;text-rendering:auto;enable-background:accumulate"
       id="path856"
       d="m 38.540523,279.71554 c -0.390221,-0.0595 -0.784257,-0.0841 -1.178266,-0.10021 -0.420101,-7e-5 -0.839754,-0.0362 -1.25222,-0.11613 -0.362207,-0.0822 -0.731105,-0.12474 -1.101313,-0.14703 -0.360185,-0.027 -0.716698,-0.0146 -1.074766,0.0255 -0.411414,0.0517 -0.825873,0.0724 -1.240084,0.0845 -0.363167,-0.0292 -0.723823,-0.0784 -1.087585,-0.1017 -0.363083,-0.0199 -0.726811,-0.021 -1.090325,-0.0228 -0.387506,-7.9e-4 -0.775014,-7.9e-4 -1.162521,-5.3e-4 -0.392755,-0.0174 -0.779711,0.007 -1.167616,0.0665 -0.258435,0.0647 -0.513996,0.0112 -0.772293,-0.0208 -0.311607,-0.0322 -0.625115,-0.038 -0.938101,-0.0425 -0.350751,0.0468 -0.701706,0.0864 -1.055006,0.10743 -0.350398,0.017 -0.694473,0.0895 -1.043804,0.12275 -0.37851,0.0138 -0.751526,0.0793 -1.128249,0.11473 -0.422155,0.0459 -0.847347,0.0906 -1.265665,0.1656 -0.268428,0.0597 -0.537389,0.11243 -0.811011,0.14006 -0.147991,0.01 -0.296439,0.0127 -0.444744,0.0134 -0.0347,-1.3e-4 -0.01892,4e-5 -0.04733,-5.3e-4 -0.214832,-0.29645 0.533815,-0.83898 0.748647,-0.54253 v 0 c 0.02699,2.2e-4 0.01195,1.1e-4 0.04512,2.6e-4 0.145267,-2.1e-4 0.290735,-0.003 0.435336,-0.0183 0.269599,-0.0305 0.534313,-0.089 0.800708,-0.13932 0.42078,-0.067 0.845024,-0.11857 1.26894,-0.16029 0.377057,-0.0397 0.751877,-0.099 1.130999,-0.11689 0.348528,-0.0371 0.693312,-0.10771 1.044245,-0.11907 0.354929,-0.0252 0.706812,-0.075 1.06129,-0.1028 0.315785,0.006 0.632105,0.0135 0.94625,0.0487 0.25354,0.0318 0.502968,0.0633 0.755952,0.003 0.389676,-0.0519 0.779351,-0.0654 1.172456,-0.0541 0.388115,-3e-5 0.776229,-10e-4 1.164344,-2.9e-4 0.364506,0.002 0.729255,0.006 1.093205,0.0277 0.361143,0.0255 0.719394,0.0798 1.081101,0.0952 0.413022,-0.0145 0.825857,-0.0375 1.236051,-0.0901 0.3615,-0.0378 0.722847,-0.0405 1.085654,-0.0139 0.371933,0.0264 0.741434,0.0766 1.105893,0.15665 0.411316,0.0707 0.826748,0.10655 1.24429,0.10642 0.397939,0.0182 0.795121,0.0484 1.189919,0.10296 0.209256,0.29678 -0.540237,0.82524 -0.749496,0.52846 z"
       inkscape:connector-curvature="0" />
    <path
       style="color:#000000;clip-rule:nonzero;display:inline;overflow:visible;visibility:visible;opacity:1;isolation:auto;mix-blend-mode:normal;color-interpolation:sRGB;color-interpolation-filters:linearRGB;solid-color:#000000;solid-opacity:1;fill:#ffffff;fill-opacity:1;fill-rule:nonzero;stroke:none;stroke-width:0.25;stroke-linecap:round;stroke-linejoin:round;stroke-miterlimit:4;stroke-dasharray:none;stroke-dashoffset:0;stroke-opacity:1;color-rendering:auto;image-rendering:auto;shape-rendering:auto;text-rendering:auto;enable-background:accumulate"
       d="m 21.645742,279.71302 c -0.15838,-0.32388 -0.289881,-0.65952 -0.414556,-0.99749 -0.06738,-0.16093 -0.125505,-0.32612 -0.296448,-0.39518 -0.191349,-0.0454 -0.390292,-0.0422 -0.585821,-0.0431 -0.335943,-0.0105 -0.668266,0.004 -1.001915,0.0425 -0.375169,0.0658 -0.750141,0.0968 -1.13128,0.10062 -0.312703,0.0195 -0.616106,-0.012 -0.922043,-0.0714 -0.214356,-0.0639 -0.420681,-0.008 -0.634429,0.022 -0.405381,0.0218 -1.242412,0.55685 0.138709,-0.22365 -0.15599,0.11279 -0.3019,0.23967 -0.43271,0.38091 -0.130962,0.15908 -0.232426,0.33862 -0.325767,0.52148 -0.09121,0.19565 -0.125962,0.40822 -0.144018,0.62138 -0.01007,0.14419 -0.0101,0.28884 -0.0093,0.43331 -0.0035,0.0771 -0.02719,0.14948 -0.05123,0.22187 0.153868,0.33065 -0.681157,0.71923 -0.835024,0.38857 v 0 c 0.02617,-0.0627 0.05174,-0.12574 0.06652,-0.19235 -3.7e-4,-0.14703 -0.0036,-0.29431 0.0074,-0.44108 0.01727,-0.22235 0.0461,-0.44433 0.130785,-0.65275 0.08811,-0.19123 0.194776,-0.3706 0.31343,-0.54448 0.130833,-0.14826 0.273402,-0.27782 0.424605,-0.40521 0.497048,-0.2869 0.889237,-0.60336 1.450979,-0.65795 0.219756,-0.033 0.432716,-0.0601 0.651358,0.004 0.300615,0.0572 0.601434,0.0726 0.907556,0.0587 0.378342,-0.008 0.750646,-0.0487 1.124458,-0.10611 0.33774,-0.0351 0.675366,-0.0447 1.014892,-0.0386 0.205036,0.003 0.417082,0.002 0.611134,0.0763 0.176938,0.10281 0.258207,0.27027 0.330169,0.45698 0.115439,0.33934 0.242255,0.67567 0.411578,0.99242 0.177689,0.31638 -0.621296,0.76511 -0.798985,0.44873 z"
       inkscape:connector-curvature="0"
       id="path858" />
    <path
       style="color:#000000;clip-rule:nonzero;display:inline;overflow:visible;visibility:visible;opacity:1;isolation:auto;mix-blend-mode:normal;color-interpolation:sRGB;color-interpolation-filters:linearRGB;solid-color:#000000;solid-opacity:1;fill:#ffffff;fill-opacity:1;fill-rule:nonzero;stroke:none;stroke-width:0.25;stroke-linecap:round;stroke-linejoin:round;stroke-miterlimit:4;stroke-dasharray:none;stroke-dashoffset:0;stroke-opacity:1;color-rendering:auto;image-rendering:auto;shape-rendering:auto;text-rendering:auto;enable-background:accumulate"
       id="path862"
       d="m 14.860315,280.50929 c -0.472122,-0.0702 -0.949853,-0.087 -1.426253,-0.10164 -0.622441,-0.0147 -1.245114,-0.0149 -1.867695,-0.0151 -0.565768,-0.0132 -1.131629,0.0234 -1.6918449,0.10179 -0.4785502,0.0581 -0.9486177,0.16447 -1.4252926,0.23445 -0.2846176,0.0691 -0.5627055,0.0256 -0.8456679,-0.0195 -0.1648373,0.009 -0.3282849,0.0356 -0.4887066,0.0738 -0.089573,0.0327 -0.1416243,-0.0944 -0.1723482,-0.16562 -0.080062,-0.18633 -0.195498,-0.35583 -0.3208227,-0.51434 -0.1501494,-0.17728 -0.323302,-0.33235 -0.5070935,-0.47354 -0.1517176,-0.16805 -0.3315708,-0.27321 -0.531015,-0.37289 -0.3144708,-0.13012 -0.65571,-0.15257 -0.9914004,-0.17208 -0.3965593,-0.0188 -0.7893436,-0.0818 -1.185409,-0.11262 -0.3874169,-0.003 -0.7689998,-0.0488 -1.1527588,-0.0956 -0.3930473,-0.0445 -0.7885853,-0.057 -1.1837563,-0.0644 -0.24050005,-0.004 -0.48102482,-0.002 -0.72153961,-0.002 -0.21251244,0.0513 -0.42833793,0.0842 -0.64462212,0.11447 -0.21571135,0.26928 -0.0234267,0.0253 0.76955509,-0.52565 0.21062584,0.29834 -0.54280936,0.83025 -0.75343519,0.53191 v 0 c 0.6998128,-0.56433 0.39703633,-0.58146 0.71961419,-0.55666 0.21797851,-0.0307 0.43288616,-0.0794 0.65145924,-0.10371 0.2392781,-1.9e-4 0.4785834,0.001 0.7177905,0.007 0.3966796,0.0104 0.7936295,0.026 1.1880119,0.0725 0.3827053,0.047 0.7646948,0.0816 1.1504094,0.0928 0.39545,0.0338 0.788335,0.0954 1.1850878,0.11088 0.3456472,0.0242 0.695911,0.055 1.015909,0.19934 0.2042596,0.10129 0.3831449,0.22282 0.5423556,0.38785 0.186241,0.14959 0.3656272,0.30773 0.5179761,0.49275 0.1288253,0.16631 0.2507951,0.34028 0.3370358,0.533 0.00217,0.005 0.039883,0.10438 0.064775,0.095 0.00911,-0.003 -0.00895,-0.0173 -0.013422,-0.0259 0.031428,-0.006 0.013981,-0.003 0.052349,-0.0105 0.1660488,-0.0309 0.3352882,-0.0585 0.5045874,-0.0436 0.2755304,0.0438 0.5464082,0.0639 0.822443,0.002 0.4748731,-0.0727 0.9448698,-0.17428 1.4223938,-0.23035 0.562789,-0.0703 1.129231,-0.10601 1.696618,-0.0904 0.62352,10e-4 1.247115,10e-4 1.870494,0.0164 0.482295,0.0155 0.96516,0.0355 1.443714,0.10154 0.209257,0.29678 -0.540237,0.82523 -0.749495,0.52845 z"
       inkscape:connector-curvature="0" />
    <path
       style="color:#000000;clip-rule:nonzero;display:inline;overflow:visible;visibility:visible;opacity:1;isolation:auto;mix-blend-mode:normal;color-interpolation:sRGB;color-interpolation-filters:linearRGB;solid-color:#000000;solid-opacity:1;fill:#ffffff;fill-opacity:1;fill-rule:nonzero;stroke:none;stroke-width:0.25;stroke-linecap:round;stroke-linejoin:round;stroke-miterlimit:4;stroke-dasharray:none;stroke-dashoffset:0;stroke-opacity:1;color-rendering:auto;image-rendering:auto;shape-rendering:auto;text-rendering:auto;enable-background:accumulate"
       id="path895"
       d="m 169.08681,283.4474 c -0.1885,0.0325 -0.37751,0.0633 -0.5671,0.0891 -0.17867,0.0221 -0.3586,0.0306 -0.53847,0.0338 -0.15721,-0.0102 -0.31305,-0.0304 -0.46873,-0.0534 -0.18534,-0.0263 -0.37255,-0.0332 -0.55945,-0.0377 -0.18143,-0.003 -0.3629,-0.003 -0.54436,-0.003 -0.1634,0.008 -0.32513,-0.006 -0.48744,-0.0224 -0.16549,-0.0159 -0.33176,-0.0199 -0.49789,-0.0226 -0.12403,-0.007 -0.24484,-0.002 -0.36598,0.0247 -0.0692,0.0151 -0.14016,0.0198 -0.21082,0.0218 -0.0365,7.9e-4 -0.0729,0.002 -0.10943,0.002 -0.0271,-0.0229 -0.049,-0.0429 -0.0621,-0.0762 -0.0127,-0.0499 -0.0101,-0.10212 -0.0101,-0.15319 5.3e-4,-0.0731 -4e-5,-0.14624 2e-5,-0.21936 -0.003,-0.0772 -0.0416,-0.13263 -0.0966,-0.18335 -0.0742,-0.0691 -0.14373,-0.14333 -0.2229,-0.20692 -0.055,-0.0516 -0.12527,-0.0779 -0.19179,-0.11048 -0.072,-0.0302 -0.15109,-0.0306 -0.22785,-0.0334 -0.0952,-0.0181 -0.19062,-0.033 -0.28714,-0.0415 -0.0986,-0.002 -0.19531,-0.008 -0.29283,-0.0227 -0.13784,-0.013 -0.27432,-0.0343 -0.41161,-0.052 -0.16684,-0.0219 -0.33552,-0.0161 -0.50268,-0.0322 -0.1799,-0.0165 -0.35755,-0.0486 -0.5373,-0.0665 -0.21954,-0.0136 -0.43626,-0.0526 -0.65435,-0.0793 -0.21986,-0.0157 -0.43846,-0.0439 -0.65789,-0.0643 -0.16233,-0.006 -0.32312,-0.0241 -0.48455,-0.0408 -0.14846,-0.0233 -0.29685,-0.005 -0.44518,0.008 -0.1467,0.0242 -0.28894,0.0712 -0.42927,0.1195 -0.13067,0.0606 -0.26259,0.11938 -0.39127,0.18434 -0.0592,0.0295 -0.11769,0.0585 -0.17516,0.0911 -0.0162,0.009 -0.0652,0.036 -0.0491,0.0266 0.0594,-0.0344 1.01527,-0.58251 -0.0914,0.0522 0.69441,-0.41266 0.29447,-0.17813 0.15319,-0.0501 -0.0591,0.0567 -0.10446,0.12451 -0.14475,0.1953 -0.0258,0.0458 -0.0352,0.096 -0.0396,0.1476 -0.002,0.0344 -0.004,0.0688 0.002,0.10294 0.0871,0.16209 -0.32224,0.38209 -0.40935,0.21999 v 0 c -0.01,-0.038 -0.009,-0.0751 -0.008,-0.11435 0.002,-0.0566 0.008,-0.11362 0.0325,-0.16544 0.0351,-0.0765 0.0841,-0.14669 0.14025,-0.2092 0.16952,-0.18537 0.43885,-0.28048 0.6335,-0.4165 -0.84718,0.49185 0.0557,-0.0481 0.31567,-0.16739 0.13004,-0.0622 0.25974,-0.12634 0.39404,-0.17876 0.14267,-0.0469 0.28689,-0.0946 0.4368,-0.11126 0.14966,-0.0121 0.2993,-0.0234 0.44873,2.6e-4 0.1611,0.0169 0.32214,0.0304 0.48377,0.0411 0.21863,0.0229 0.43678,0.0498 0.65597,0.067 0.21829,0.0275 0.43574,0.063 0.65553,0.0773 0.17979,0.0189 0.35798,0.0499 0.53823,0.0648 0.16811,0.0121 0.33719,0.0112 0.50456,0.0335 0.13779,0.0183 0.27546,0.0358 0.41361,0.051 0.0976,0.0125 0.19534,0.0124 0.29331,0.0203 0.0954,0.0109 0.1896,0.029 0.28491,0.0399 0.0823,0.004 0.16542,0.01 0.24025,0.048 0.0693,0.0342 0.13989,0.066 0.19667,0.12028 0.078,0.0666 0.14884,0.14075 0.22455,0.2098 0.0619,0.0612 0.10694,0.12654 0.11627,0.21527 -2.1e-4,0.0731 -0.001,0.14618 -5.3e-4,0.21927 5.3e-4,0.0461 -1.8e-4,0.0924 0.005,0.13823 0.003,0.0113 0.0204,0.0389 0.032,0.0276 0.0352,1.1e-4 0.0704,-2.7e-4 0.10559,-0.002 0.0693,-0.004 0.13821,-0.0117 0.20605,-0.0268 0.12198,-0.0206 0.24448,-0.0179 0.36788,-0.014 0.16697,0.003 0.33402,0.009 0.50029,0.0253 0.16124,0.0157 0.32217,0.0247 0.4843,0.0192 0.18142,0 0.36286,2.6e-4 0.54424,0.004 0.18832,0.006 0.37682,0.0143 0.56348,0.0414 0.15419,0.0219 0.30902,0.0413 0.4648,0.0469 0.17813,-0.004 0.35641,-0.0124 0.53314,-0.0366 0.19048,-0.0273 0.38154,-0.0551 0.56937,-0.0969 0.11124,0.14546 -0.25612,0.42636 -0.36735,0.28089 z"
       inkscape:connector-curvature="0" />
    <path
       style="color:#000000;clip-rule:nonzero;display:inline;overflow:visible;visibility:visible;opacity:1;isolation:auto;mix-blend-mode:normal;color-interpolation:sRGB;color-interpolation-filters:linearRGB;solid-color:#000000;solid-opacity:1;fill:#ffffff;fill-opacity:1;fill-rule:nonzero;stroke:none;stroke-width:0.25;stroke-linecap:round;stroke-linejoin:round;stroke-miterlimit:4;stroke-dasharray:none;stroke-dashoffset:0;stroke-opacity:1;color-rendering:auto;image-rendering:auto;shape-rendering:auto;text-rendering:auto;enable-background:accumulate"
       id="path897"
       d="m 158.18559,282.7525 c -0.1417,-0.0615 -0.29459,-0.0867 -0.44703,-0.10357 -0.18583,-0.01 -0.3709,-0.0182 -0.55531,-0.0445 -0.20502,-0.0368 -0.41381,-0.0397 -0.62011,-0.0641 -0.14625,-0.0225 -0.29352,-0.0349 -0.44126,-0.0411 -0.15345,-0.005 -0.30701,-0.005 -0.46051,-0.004 -0.10162,5.2e-4 -0.20323,5.2e-4 -0.30484,0.002 -0.0729,10e-4 -0.14566,-0.005 -0.2177,0.007 -0.0884,0.0146 -0.17701,0.0288 -0.2664,0.0358 -0.0333,0.002 -0.0667,0.005 -0.10011,0.005 -0.009,-0.002 -0.0181,-7.9e-4 -0.0275,-7.9e-4 -0.002,0 -0.005,-0.002 -0.007,10e-6 -0.10483,0.13574 0.53039,-0.31279 0.34749,-0.18423 -0.5229,0.32097 -0.39648,0.30543 -0.43484,0.10726 -0.0214,-0.0316 -0.0514,-0.0564 -0.0793,-0.0822 -0.0303,-0.0301 -0.0476,-0.0707 -0.0731,-0.10509 -0.0396,-0.0502 -0.0845,-0.0961 -0.12936,-0.14155 -0.0579,-0.0444 -0.11122,-0.0939 -0.16643,-0.14145 -0.0715,-0.058 -0.14615,-0.11405 -0.22858,-0.1555 -0.0954,-0.0361 -0.19384,-0.0616 -0.29452,-0.0777 -0.11404,-0.0156 -0.22937,-0.016 -0.34424,-0.017 -0.1304,-5.3e-4 -0.26079,-10e-5 -0.39119,-9e-5 -0.14166,0 -0.28332,2.7e-4 -0.42498,2.4e-4 -0.11692,-1.5e-4 -0.23272,-0.006 -0.3477,0.0172 -0.15258,0.0329 -0.5959,0.31416 0.14918,-0.11148 -0.0772,0.0516 -0.1474,0.11239 -0.22266,0.16674 -0.065,0.0419 -0.12726,0.0865 -0.18206,0.14111 -0.0594,0.0592 -0.10337,0.1311 -0.1577,0.19468 -0.1786,0.18398 -0.39048,0.28324 -0.63008,0.2944 -0.13476,0.002 -0.26955,2.2e-4 -0.40432,-2.7e-4 -0.12759,-0.002 -0.25369,-0.005 -0.37974,0.0159 -0.10473,0.0232 -0.20785,0.025 -0.31367,0.0125 -0.11855,-0.0221 -0.23544,-0.0164 -0.35411,-0.002 -0.0885,0.0116 -0.17765,0.0167 -0.26681,0.0196 -0.0825,0.002 -0.16509,0.001 -0.24763,0.001 -0.0906,-5e-5 -0.18113,-5.3e-4 -0.27169,-9e-5 -0.0841,0.0231 -0.16994,0.0333 -0.25668,0.0395 -0.11309,0.006 -0.22633,0.006 -0.33953,0.007 -0.0452,0.002 -0.0907,-0.002 -0.13592,10e-4 -0.10854,-0.14986 0.26992,-0.42397 0.37846,-0.27411 v 0 c 0.0437,0.001 0.0875,0.001 0.13128,0.001 0.11238,-2.1e-4 0.22491,-0.001 0.337,-0.01 0.0874,-0.009 0.17267,-0.029 0.25998,-0.037 0.0905,5.3e-4 0.18093,2.1e-4 0.27139,2.6e-4 0.0824,-1.2e-4 0.16483,-2e-5 0.24719,-0.003 0.0881,-0.004 0.17603,-0.0103 0.26356,-0.0213 0.12041,-0.0115 0.23969,-0.008 0.35952,0.01 0.10358,0.009 0.20503,-0.003 0.30716,-0.0216 0.12675,-0.0158 0.25409,-0.009 0.38155,-0.009 0.13513,2.6e-4 0.27042,0.002 0.40541,-0.005 0.0418,-0.004 0.0836,-0.007 0.12366,-0.0209 0.0122,-0.004 0.0466,-0.0214 0.0356,-0.0147 -0.0121,0.007 -0.51507,0.3031 -0.3291,0.19375 0.0624,-0.0569 0.10129,-0.13218 0.15723,-0.19451 0.0537,-0.0575 0.10954,-0.11172 0.1798,-0.14869 0.075,-0.0558 0.14988,-0.11088 0.22268,-0.16953 0.18824,-0.11048 0.41536,-0.2904 0.65056,-0.33428 0.11616,-0.0158 0.23317,-0.008 0.35009,-0.009 0.14168,-1.1e-4 0.28336,7e-5 0.42505,-2.6e-4 0.1307,-2.7e-4 0.2614,-8e-4 0.3921,1.5e-4 0.11666,0.002 0.23392,0.003 0.34924,0.0226 0.10363,0.0195 0.20694,0.0455 0.30322,0.0893 0.0835,0.0465 0.16207,0.10265 0.23542,0.16387 0.0553,0.0492 0.11249,0.0958 0.16845,0.14434 0.046,0.0473 0.0934,0.0937 0.13357,0.14628 0.0241,0.032 0.041,0.0693 0.0693,0.0975 0.0337,0.0315 0.0684,0.0626 0.0919,0.10304 0.0722,0.199 -0.27438,0.22526 -0.41039,0.29464 -0.002,7.9e-4 0.002,-0.003 0.004,-0.004 0.13137,-0.12063 0.29044,-0.2919 0.47024,-0.26411 0.009,8e-5 0.0184,10e-4 0.027,-2.6e-4 0.0318,-10e-4 0.0637,-0.003 0.0954,-0.006 0.0886,-0.009 0.17646,-0.0231 0.26455,-0.036 0.0739,-0.006 0.14796,-0.004 0.22205,-0.004 0.10062,8e-4 0.20125,2.7e-4 0.30188,8e-4 0.15383,5.3e-4 0.3077,10e-4 0.46147,0.006 0.14777,0.008 0.29479,0.0228 0.44113,0.0449 0.20638,0.0222 0.41424,0.0316 0.61931,0.0658 0.18534,0.0228 0.37122,0.0287 0.55726,0.0425 0.15637,0.0203 0.31171,0.0512 0.45804,0.11192 0.10163,0.15252 -0.28352,0.40919 -0.38516,0.25668 z"
       inkscape:connector-curvature="0" />
    <path
       style="color:#000000;clip-rule:nonzero;display:inline;overflow:visible;visibility:visible;opacity:1;isolation:auto;mix-blend-mode:normal;color-interpolation:sRGB;color-interpolation-filters:linearRGB;solid-color:#000000;solid-opacity:1;fill:#ffffff;fill-opacity:1;fill-rule:nonzero;stroke:none;stroke-width:0.25;stroke-linecap:round;stroke-linejoin:round;stroke-miterlimit:4;stroke-dasharray:none;stroke-dashoffset:0;stroke-opacity:1;color-rendering:auto;image-rendering:auto;shape-rendering:auto;text-rendering:auto;enable-background:accumulate"
       id="path899"
       d="m 163.55385,282.96887 c 0.0711,0.0729 0.15176,0.15298 0.15071,0.26089 -0.13941,0.29243 -0.48971,0.31284 -0.75646,0.29381 -0.2832,-0.0405 -0.56126,-0.10965 -0.843,-0.15926 -0.31533,-0.0443 -0.63325,-0.0686 -0.95049,-0.0955 -0.19199,-0.0138 -0.37548,-0.0652 -0.55756,-0.12408 -0.14257,-0.0446 -0.29041,-0.0695 -0.43894,-0.0827 -0.0839,-0.006 -0.16813,-0.006 -0.25222,-0.005 -0.054,0.002 -0.0627,0.01 -0.10524,-0.0228 -0.0367,-0.0146 -0.0682,-0.0411 -0.0995,-0.0657 -0.0431,-0.0262 -0.0896,-0.0399 -0.13012,-0.0697 -0.016,-0.0177 -0.0277,-0.0397 -0.0396,-0.0596 -0.0943,-0.15901 0.30731,-0.39705 0.40157,-0.23804 v 0 c 0.01,0.016 0.0155,0.0348 0.0303,0.0474 0.0418,0.0267 0.0913,0.0401 0.13066,0.0714 0.032,0.0225 0.063,0.046 0.0988,0.0623 0.0243,0.0113 0.0613,-0.006 0.0884,0.002 0.0844,5.3e-4 0.16892,0.002 0.25296,0.0106 0.14946,0.0178 0.29778,0.0469 0.44143,0.0924 0.17909,0.0558 0.35946,0.10458 0.54748,0.11904 0.31688,0.0304 0.63477,0.0538 0.94973,0.10074 0.28202,0.05 0.56111,0.11995 0.84617,0.15009 0.0805,0.002 0.1638,0.007 0.24328,-0.011 0.0177,-0.004 0.067,-0.0271 0.0517,-0.0173 -0.31998,0.20552 -0.49157,0.24922 -0.32672,0.20458 0.0393,-0.0821 -0.0812,-0.16994 -0.12825,-0.2224 -0.0958,-0.15638 0.2991,-0.3984 0.39494,-0.24201 z"
       inkscape:connector-curvature="0" />
    <path
       style="color:#000000;clip-rule:nonzero;display:inline;overflow:visible;visibility:visible;opacity:1;isolation:auto;mix-blend-mode:normal;color-interpolation:sRGB;color-interpolation-filters:linearRGB;solid-color:#000000;solid-opacity:1;fill:#ffffff;fill-opacity:1;fill-rule:nonzero;stroke:none;stroke-width:0.25;stroke-linecap:round;stroke-linejoin:round;stroke-miterlimit:4;stroke-dasharray:none;stroke-dashoffset:0;stroke-opacity:1;color-rendering:auto;image-rendering:auto;shape-rendering:auto;text-rendering:auto;enable-background:accumulate"
       id="path901"
       d="m 145.68777,279.65555 c 0.0763,0.0898 0.17626,0.17692 0.21212,0.29212 -0.005,0.0371 7.9e-4,0.0596 -0.0388,0.082 -0.15114,0.0856 -0.30362,0.16957 -0.46145,0.24211 -0.0489,0.0225 -0.2828,0.0183 -0.3342,0.0196 -0.41177,-0.0114 -0.82356,-0.0455 -1.22907,-0.11868 -0.26017,-0.0541 -0.51761,-0.13329 -0.73212,-0.29409 -0.0903,-0.0805 -0.16687,-0.17532 -0.27196,-0.23738 -0.0872,-0.0402 -0.18361,-0.0548 -0.27172,-0.0914 -0.0336,-0.0157 -0.068,-0.031 -0.0983,-0.0527 -0.12297,-0.1027 0.36315,-0.18809 0.39851,-0.20172 0.0125,-0.005 -5.3e-4,0.0268 -8e-4,0.0402 0.0832,0.16342 -0.3295,0.37354 -0.4127,0.21011 v 0 c -0.002,-0.17784 0.1698,-0.33049 0.40847,-0.29995 0.0282,0.018 0.0583,0.0331 0.0893,0.0456 0.0922,0.032 0.18802,0.0551 0.27547,0.0998 0.10204,0.0678 0.1807,0.1606 0.2709,0.24251 0.20743,0.15518 0.45697,0.23184 0.70811,0.2848 0.40579,0.0712 0.81806,0.10552 1.23013,0.10613 0.0852,-0.004 0.16574,-0.006 0.25002,-0.0177 0.0284,-0.004 0.10728,-0.0331 0.0845,-0.0157 -0.10413,0.0794 -0.22567,0.1331 -0.33433,0.20612 -0.0124,0.008 0.0299,-0.004 0.0434,-0.0106 0.008,-0.004 0.0126,-0.0124 0.0189,-0.0186 -0.0159,-0.1025 -0.13711,-0.19815 -0.20124,-0.27419 -0.0943,-0.15709 0.30239,-0.39527 0.39671,-0.23819 z"
       inkscape:connector-curvature="0" />
    <path
       style="color:#000000;clip-rule:nonzero;display:inline;overflow:visible;visibility:visible;opacity:1;isolation:auto;mix-blend-mode:normal;color-interpolation:sRGB;color-interpolation-filters:linearRGB;solid-color:#000000;solid-opacity:1;fill:#ffffff;fill-opacity:1;fill-rule:nonzero;stroke:none;stroke-width:0.25;stroke-linecap:round;stroke-linejoin:round;stroke-miterlimit:4;stroke-dasharray:none;stroke-dashoffset:0;stroke-opacity:1;color-rendering:auto;image-rendering:auto;shape-rendering:auto;text-rendering:auto;enable-background:accumulate"
       id="path905"
       d="m 68.115573,284.49245 c -0.04011,-0.10578 -0.0739,-0.21949 -0.151106,-0.30485 -0.08013,-0.0599 -0.191066,-0.0382 -0.282646,-0.0187 -0.153337,0.0354 -0.306261,0.0768 -0.452628,0.13514 0.05592,-0.0424 -0.281623,0.1483 -0.21127,0.11113 0.09565,-0.0505 0.185134,-0.11367 0.284985,-0.15532 0.03698,-0.0154 -0.06392,0.0485 -0.09355,0.0755 -0.07952,0.0724 -0.07604,0.078 -0.133014,0.16361 0.07292,0.16517 -0.344197,0.34931 -0.417113,0.18415 v 0 c 0.01767,-0.0306 0.03228,-0.0631 0.05303,-0.0916 0.03417,-0.047 0.120311,-0.13488 0.168489,-0.16589 0.226251,-0.14566 0.459306,-0.29351 0.707218,-0.40269 0.150384,-0.0548 0.304861,-0.10063 0.462105,-0.13115 0.109207,-0.0143 0.224843,-0.0256 0.3105,0.0572 0.07643,0.0925 0.114321,0.20682 0.158559,0.31691 0.08975,0.1598 -0.313806,0.38645 -0.403556,0.22665 z"
       inkscape:connector-curvature="0" />
    <path
       style="color:#000000;clip-rule:nonzero;display:inline;overflow:visible;visibility:visible;opacity:1;isolation:auto;mix-blend-mode:normal;color-interpolation:sRGB;color-interpolation-filters:linearRGB;solid-color:#000000;solid-opacity:1;fill:#ffffff;fill-opacity:1;fill-rule:nonzero;stroke:none;stroke-width:0.25;stroke-linecap:round;stroke-linejoin:round;stroke-miterlimit:4;stroke-dasharray:none;stroke-dashoffset:0;stroke-opacity:1;color-rendering:auto;image-rendering:auto;shape-rendering:auto;text-rendering:auto;enable-background:accumulate"
       id="path907"
       d="m 66.98616,282.64044 c -0.111652,-0.11745 -0.234625,-0.22433 -0.380119,-0.29667 -0.205526,-0.065 -0.412607,-0.003 -0.610995,0.0572 -0.07238,0.0215 -0.144459,0.0441 -0.216487,0.0668 -0.111681,-0.14446 0.253138,-0.42649 0.364818,-0.28203 v 0 c 0.07087,-0.0212 0.141753,-0.0423 0.212757,-0.0631 0.207338,-0.0584 0.423275,-0.11107 0.632486,-0.0298 0.147252,0.0794 0.272923,0.18912 0.392478,0.30556 0.09584,0.15639 -0.299104,0.39841 -0.394938,0.24202 z"
       inkscape:connector-curvature="0" />
    <path
       style="color:#000000;clip-rule:nonzero;display:inline;overflow:visible;visibility:visible;opacity:1;isolation:auto;mix-blend-mode:normal;color-interpolation:sRGB;color-interpolation-filters:linearRGB;solid-color:#000000;solid-opacity:1;fill:#ffffff;fill-opacity:1;fill-rule:nonzero;stroke:none;stroke-width:0.25;stroke-linecap:round;stroke-linejoin:round;stroke-miterlimit:4;stroke-dasharray:none;stroke-dashoffset:0;stroke-opacity:1;color-rendering:auto;image-rendering:auto;shape-rendering:auto;text-rendering:auto;enable-background:accumulate"
       id="path909"
       d="m 63.467831,283.42391 c -0.174932,-0.13551 -0.398425,-0.18586 -0.617342,-0.17216 -0.05383,0.003 -0.10691,0.0143 -0.160363,0.0214 -0.177904,0.0419 -0.350031,0.10188 -0.513499,0.18354 -0.02413,0.012 -0.09479,0.0515 -0.07144,0.038 0.115986,-0.0671 0.232932,-0.13248 0.349396,-0.19871 0.06621,0.1704 -0.36412,0.3376 -0.430326,0.1672 v 0 c 0.355102,-0.20661 0.62313,-0.38377 1.026027,-0.45814 0.05479,-0.005 0.109329,-0.0148 0.164367,-0.0165 0.230984,-0.007 0.461598,0.054 0.646573,0.19427 0.09546,0.15578 -0.297934,0.39685 -0.393393,0.24108 z"
       inkscape:connector-curvature="0" />
    <path
       style="color:#000000;clip-rule:nonzero;display:inline;overflow:visible;visibility:visible;opacity:1;isolation:auto;mix-blend-mode:normal;color-interpolation:sRGB;color-interpolation-filters:linearRGB;solid-color:#000000;solid-opacity:1;fill:#ffffff;fill-opacity:1;fill-rule:nonzero;stroke:none;stroke-width:0.25;stroke-linecap:round;stroke-linejoin:round;stroke-miterlimit:4;stroke-dasharray:none;stroke-dashoffset:0;stroke-opacity:1;color-rendering:auto;image-rendering:auto;shape-rendering:auto;text-rendering:auto;enable-background:accumulate"
       id="path911"
       d="m 64.352664,281.93555 c -0.147487,-0.12542 -0.309523,-0.24396 -0.498822,-0.29689 -0.04208,-0.0118 -0.08571,-0.0171 -0.128561,-0.0256 -0.121449,-0.007 -0.130744,-0.0152 -0.249888,0.007 -0.173429,0.0327 -0.502446,0.23217 0.103767,-0.10615 0.06515,0.16883 -0.36122,0.33337 -0.426371,0.16453 v 0 c 0.361934,-0.20728 0.542732,-0.37603 0.944131,-0.32376 0.04413,0.0104 0.08912,0.0176 0.132401,0.0311 0.192463,0.0599 0.355716,0.18157 0.513222,0.30288 0.09765,0.15438 -0.292232,0.40098 -0.389879,0.24659 z"
       inkscape:connector-curvature="0" />
    <path
       style="color:#000000;clip-rule:nonzero;display:inline;overflow:visible;visibility:visible;opacity:1;isolation:auto;mix-blend-mode:normal;color-interpolation:sRGB;color-interpolation-filters:linearRGB;solid-color:#000000;solid-opacity:1;fill:#ffffff;fill-opacity:1;fill-rule:nonzero;stroke:none;stroke-width:0.25;stroke-linecap:round;stroke-linejoin:round;stroke-miterlimit:4;stroke-dasharray:none;stroke-dashoffset:0;stroke-opacity:1;color-rendering:auto;image-rendering:auto;shape-rendering:auto;text-rendering:auto;enable-background:accumulate"
       id="path913"
       d="m 58.948229,284.63277 c -0.06878,-0.1385 -0.161657,-0.28225 -0.305792,-0.35218 -0.03072,-0.0149 -0.06456,-0.0222 -0.09685,-0.0333 -0.158144,-0.0204 -0.31179,0.0383 -0.45004,0.11135 -0.03229,0.017 -0.125622,0.0745 -0.09375,0.0567 0.1059,-0.0592 0.21059,-0.1206 0.315884,-0.18091 -0.148059,0.0831 -0.296114,0.16617 -0.444172,0.24925 -0.113724,-0.143 0.247401,-0.4302 0.361124,-0.2872 v 0 c -0.114686,0.0676 -0.229375,0.13512 -0.344061,0.20267 0.200686,-0.11659 0.631108,-0.42231 0.919379,-0.42198 0.03824,5e-5 0.07573,0.0106 0.113602,0.0159 0.03418,0.014 0.07008,0.0244 0.102536,0.042 0.148162,0.0806 0.245565,0.22814 0.325697,0.37109 0.08975,0.1598 -0.313806,0.38644 -0.403556,0.22664 z"
       inkscape:connector-curvature="0" />
    <path
       style="color:#000000;clip-rule:nonzero;display:inline;overflow:visible;visibility:visible;opacity:1;isolation:auto;mix-blend-mode:normal;color-interpolation:sRGB;color-interpolation-filters:linearRGB;solid-color:#000000;solid-opacity:1;fill:#ffffff;fill-opacity:1;fill-rule:nonzero;stroke:none;stroke-width:0.25;stroke-linecap:round;stroke-linejoin:round;stroke-miterlimit:4;stroke-dasharray:none;stroke-dashoffset:0;stroke-opacity:1;color-rendering:auto;image-rendering:auto;shape-rendering:auto;text-rendering:auto;enable-background:accumulate"
       id="path915"
       d="m 60.437172,282.39907 c -0.128905,-0.10427 -0.307549,-0.13775 -0.46958,-0.10673 -0.03627,0.007 -0.0708,0.021 -0.106204,0.0315 -0.123097,0.0599 -0.388837,0.1913 0.22392,-0.13275 0.03961,-0.021 -0.07294,0.0522 -0.107831,0.0803 0.06834,0.16918 -0.358931,0.34176 -0.427268,0.17257 v 0 c 0.196879,-0.17107 0.42766,-0.30599 0.672346,-0.39664 0.03699,-0.008 0.07338,-0.0197 0.110964,-0.0244 0.177392,-0.022 0.362294,0.024 0.500361,0.13796 0.09432,0.15709 -0.302392,0.39528 -0.396708,0.23819 z"
       inkscape:connector-curvature="0" />
    <path
       style="color:#000000;clip-rule:nonzero;display:inline;overflow:visible;visibility:visible;opacity:1;isolation:auto;mix-blend-mode:normal;color-interpolation:sRGB;color-interpolation-filters:linearRGB;solid-color:#000000;solid-opacity:1;fill:#ffffff;fill-opacity:1;fill-rule:nonzero;stroke:none;stroke-width:0.25;stroke-linecap:round;stroke-linejoin:round;stroke-miterlimit:4;stroke-dasharray:none;stroke-dashoffset:0;stroke-opacity:1;color-rendering:auto;image-rendering:auto;shape-rendering:auto;text-rendering:auto;enable-background:accumulate"
       id="path917"
       d="m 56.379842,282.15133 c -0.05186,-0.15636 -0.177834,-0.27869 -0.337042,-0.32596 -0.03945,-0.0117 -0.08111,-0.0139 -0.121669,-0.0209 -0.118684,0.006 -0.141676,-0.004 -0.253111,0.0429 -0.03721,0.0156 -0.142221,0.076 -0.105589,0.0591 0.103692,-0.0478 0.204665,-0.10135 0.306998,-0.15203 0.0685,0.16665 -0.352348,0.33965 -0.420851,0.173 v 0 c 0.182742,-0.11894 0.449551,-0.35751 0.708506,-0.38354 0.04507,-0.005 0.09058,10e-4 0.135874,0.002 0.04263,0.01 0.08658,0.0149 0.127887,0.0293 0.168926,0.0587 0.300056,0.19059 0.365577,0.35494 0.08776,0.161 -0.31882,0.38263 -0.40658,0.22163 z"
       inkscape:connector-curvature="0" />
    <path
       style="color:#000000;clip-rule:nonzero;display:inline;overflow:visible;visibility:visible;opacity:1;isolation:auto;mix-blend-mode:normal;color-interpolation:sRGB;color-interpolation-filters:linearRGB;solid-color:#000000;solid-opacity:1;fill:#ffffff;fill-opacity:1;fill-rule:nonzero;stroke:none;stroke-width:0.25;stroke-linecap:round;stroke-linejoin:round;stroke-miterlimit:4;stroke-dasharray:none;stroke-dashoffset:0;stroke-opacity:1;color-rendering:auto;image-rendering:auto;shape-rendering:auto;text-rendering:auto;enable-background:accumulate"
       id="path919"
       d="m 58.765127,281.77074 c -0.06102,-0.16317 -0.191053,-0.26511 -0.366689,-0.28023 -0.04479,-0.004 -0.08989,0.002 -0.134834,0.002 -0.180425,0.0355 -0.09459,0.008 -0.257985,0.0815 -0.110836,-0.14076 0.244637,-0.42067 0.355473,-0.27991 v 0 c 0.171194,-0.0626 0.08189,-0.0397 0.26837,-0.0669 0.04717,0.002 0.09479,-0.002 0.141512,0.005 0.189775,0.0272 0.325761,0.14638 0.400926,0.31811 0.0871,0.16107 -0.319667,0.38105 -0.406773,0.21997 z"
       inkscape:connector-curvature="0" />
    <path
       style="color:#000000;clip-rule:nonzero;display:inline;overflow:visible;visibility:visible;opacity:1;isolation:auto;mix-blend-mode:normal;color-interpolation:sRGB;color-interpolation-filters:linearRGB;solid-color:#000000;solid-opacity:1;fill:#ffffff;fill-opacity:1;fill-rule:nonzero;stroke:none;stroke-width:0.25;stroke-linecap:round;stroke-linejoin:round;stroke-miterlimit:4;stroke-dasharray:none;stroke-dashoffset:0;stroke-opacity:1;color-rendering:auto;image-rendering:auto;shape-rendering:auto;text-rendering:auto;enable-background:accumulate"
       id="path921"
       d="m 54.730305,284.6837 c -0.116382,-0.14326 -0.268578,-0.28186 -0.453519,-0.32603 -0.03756,-0.009 -0.07675,-0.009 -0.115128,-0.0129 -0.03697,0.007 -0.07549,0.008 -0.110906,0.0211 -0.0342,0.0123 -0.127828,0.0691 -0.09527,0.053 0.103905,-0.0514 0.19929,-0.12254 0.309372,-0.15891 0.03142,-0.0104 -0.04397,0.0497 -0.06231,0.0773 -0.04124,0.0619 -0.03744,0.0679 -0.05144,0.13118 0.07993,0.16387 -0.333926,0.36572 -0.413851,0.20185 v 0 c 0.04329,-0.3099 0.301681,-0.37434 0.574209,-0.53502 0.03196,-0.0188 0.06717,-0.033 0.103291,-0.0415 0.03849,-0.009 0.07877,-0.007 0.118158,-0.0104 0.04005,0.007 0.08113,0.0102 0.120155,0.0218 0.190717,0.0566 0.34663,0.1981 0.475268,0.34369 0.09304,0.15762 -0.304993,0.39258 -0.398034,0.23496 z"
       inkscape:connector-curvature="0" />
    <path
       style="color:#000000;clip-rule:nonzero;display:inline;overflow:visible;visibility:visible;opacity:1;isolation:auto;mix-blend-mode:normal;color-interpolation:sRGB;color-interpolation-filters:linearRGB;solid-color:#000000;solid-opacity:1;fill:#ffffff;fill-opacity:1;fill-rule:nonzero;stroke:none;stroke-width:0.25;stroke-linecap:round;stroke-linejoin:round;stroke-miterlimit:4;stroke-dasharray:none;stroke-dashoffset:0;stroke-opacity:1;color-rendering:auto;image-rendering:auto;shape-rendering:auto;text-rendering:auto;enable-background:accumulate"
       id="path923"
       d="m 53.313681,282.3961 c -0.195889,-0.19154 -0.418359,-0.3668 -0.681143,-0.45592 -0.05645,-0.0192 -0.11566,-0.0289 -0.17349,-0.0434 -0.100277,-0.14587 0.268105,-0.39911 0.368382,-0.25324 v 0 c 0.05863,0.0166 0.118658,0.029 0.175908,0.0499 0.266319,0.0972 0.491054,0.27453 0.701725,0.45927 0.0964,0.15498 -0.294986,0.39842 -0.391382,0.24344 z"
       inkscape:connector-curvature="0" />
    <path
       style="color:#000000;clip-rule:nonzero;display:inline;overflow:visible;visibility:visible;opacity:1;isolation:auto;mix-blend-mode:normal;color-interpolation:sRGB;color-interpolation-filters:linearRGB;solid-color:#000000;solid-opacity:1;fill:#ffffff;fill-opacity:1;fill-rule:nonzero;stroke:none;stroke-width:0.25;stroke-linecap:round;stroke-linejoin:round;stroke-miterlimit:4;stroke-dasharray:none;stroke-dashoffset:0;stroke-opacity:1;color-rendering:auto;image-rendering:auto;shape-rendering:auto;text-rendering:auto;enable-background:accumulate"
       id="path925"
       d="m 52.166265,283.51024 c -0.0643,-0.14713 -0.208759,-0.24537 -0.372141,-0.24104 -0.03245,7.9e-4 -0.06403,0.0107 -0.09605,0.0161 -0.280853,0.14859 0.214368,-0.11368 0.235651,-0.12172 0.02455,-0.009 -0.03412,0.0404 -0.04677,0.0634 -0.01114,0.0203 -0.01593,0.0434 -0.02387,0.0651 0.07773,0.16439 -0.337426,0.36068 -0.415153,0.19629 v 0 c 0.0065,-0.0257 0.0094,-0.0525 0.01947,-0.0771 0.09392,-0.23007 0.375397,-0.31644 0.596829,-0.39827 0.03413,-0.002 0.06827,-0.008 0.102381,-0.006 0.175553,0.012 0.325172,0.12262 0.403214,0.2767 0.08975,0.1598 -0.313806,0.38645 -0.403556,0.22665 z"
       inkscape:connector-curvature="0" />
    <path
       style="color:#000000;clip-rule:nonzero;display:inline;overflow:visible;visibility:visible;opacity:1;isolation:auto;mix-blend-mode:normal;color-interpolation:sRGB;color-interpolation-filters:linearRGB;solid-color:#000000;solid-opacity:1;fill:#ffffff;fill-opacity:1;fill-rule:nonzero;stroke:none;stroke-width:0.25;stroke-linecap:round;stroke-linejoin:round;stroke-miterlimit:4;stroke-dasharray:none;stroke-dashoffset:0;stroke-opacity:1;color-rendering:auto;image-rendering:auto;shape-rendering:auto;text-rendering:auto;enable-background:accumulate"
       id="path927"
       d="m 56.192657,283.73517 c -0.0455,-0.14737 -0.133551,-0.23466 -0.29777,-0.18433 -0.03364,0.0103 -0.06372,0.0299 -0.09558,0.0448 0.327822,-0.17295 0.375471,-0.23541 0.221242,-0.0812 0.0696,0.16631 -0.350406,0.34207 -0.420005,0.17576 v 0 c 0.19612,-0.22621 0.04099,-0.0647 0.556861,-0.37591 0.0349,-0.0114 0.06848,-0.0283 0.104711,-0.0343 0.17326,-0.0288 0.28438,0.0833 0.337312,0.23511 0.0871,0.16108 -0.319666,0.38105 -0.406773,0.21998 z"
       inkscape:connector-curvature="0" />
    <path
       style="color:#000000;clip-rule:nonzero;display:inline;overflow:visible;visibility:visible;opacity:1;isolation:auto;mix-blend-mode:normal;color-interpolation:sRGB;color-interpolation-filters:linearRGB;solid-color:#000000;solid-opacity:1;fill:#ffffff;fill-opacity:1;fill-rule:nonzero;stroke:none;stroke-width:0.25;stroke-linecap:round;stroke-linejoin:round;stroke-miterlimit:4;stroke-dasharray:none;stroke-dashoffset:0;stroke-opacity:1;color-rendering:auto;image-rendering:auto;shape-rendering:auto;text-rendering:auto;enable-background:accumulate"
       id="path929"
       d="m 79.504494,280.13899 c 0.249992,-0.0248 0.500441,-0.0422 0.751406,-0.0529 0.267798,-0.0104 0.534141,-0.0432 0.801627,-0.0611 0.235521,-0.0308 0.471344,-0.0543 0.705556,-0.094 0.179708,-0.0227 0.354539,-0.0688 0.533501,-0.0962 0.170823,-0.0449 0.345043,-0.068 0.520718,-0.082 0.153575,-0.0187 0.299363,-0.0693 0.449906,-0.10089 0.164401,-0.0206 0.327067,-0.0469 0.490572,-0.0741 0.158615,-0.0258 0.319577,-0.0299 0.479927,-0.0324 0.162356,0.011 0.319937,-0.0138 0.479878,-0.0352 0.173101,0.008 0.342828,0.0188 0.515725,0.004 0.14581,-0.0109 0.289224,-0.0227 0.431184,-0.057 0.1246,-0.03 0.252616,-0.0379 0.38019,-0.0429 0.131866,-0.004 0.263806,-0.003 0.395711,-0.003 0.114401,-2.6e-4 0.228801,7e-5 0.343199,2.7e-4 0.130376,-10e-4 0.253635,0.0482 0.384424,0.0404 0.133802,-0.0171 0.268028,-0.0561 0.387974,-0.1185 0.240372,-0.11473 0.816745,-0.45558 -0.181999,0.11678 0.09133,-0.0544 0.176044,-0.11926 0.259445,-0.185 0.08917,-0.0814 0.184621,-0.15548 0.278403,-0.23143 0.09009,-0.0654 0.173162,-0.14 0.265568,-0.20213 0.361293,-0.23282 1.226642,-0.69471 0.118488,-0.0736 -0.01431,0.008 0.02675,-0.019 0.03985,-0.0289 0.130926,-0.0987 -0.05402,0.0375 0.08956,-0.0677 0.266494,-0.19354 0.563176,-0.34021 0.849852,-0.49988 0.110892,-0.0455 0.221999,-0.0879 0.339662,-0.11275 0.147312,-0.0199 0.294698,-0.0268 0.441968,-0.0479 0.193085,-0.0194 0.385535,-0.0489 0.574593,-0.0929 0.178265,-0.0449 0.361262,-0.0653 0.544314,-0.0774 0.141628,-0.008 0.283511,-0.007 0.425296,-0.007 0.151572,2.7e-4 0.303141,10e-4 0.454713,10e-4 0.143616,0.002 0.284425,0.0368 0.427593,0.0509 0.130392,0.0174 0.263327,0.002 0.392462,0.0265 0.08541,0.0262 0.17526,0.0354 0.26026,0.0617 0.107341,0.0328 0.20905,0.0854 0.297069,0.15505 0.09537,0.0613 0.177398,0.1347 0.249711,0.22146 0.06488,0.0917 0.127826,0.18623 0.205454,0.26783 0.06315,0.0794 0.115925,0.1666 0.173538,0.25024 0.04975,0.0565 0.07121,0.12684 0.100531,0.19447 0.02447,0.0765 0.08706,0.1216 0.146571,0.17051 0.07219,0.0605 0.14719,0.11593 0.221348,0.17409 0.0823,0.0747 0.188791,0.1101 0.285869,0.16091 0.09091,0.0247 0.1626,0.0544 0.2345,0.11603 0.05317,0.0595 0.131932,0.0562 0.203068,0.0768 0.141727,0.0417 0.289999,0.0424 0.435078,0.0636 0.205965,0.0307 0.41374,0.0459 0.62162,0.0554 0.159425,0.0143 0.316301,-0.0206 0.474398,-0.0365 0.186875,-0.0159 0.374698,0.0139 0.561311,0.0269 0.177043,0.007 0.348332,0.0388 0.525732,0.0357 0.1538,5.3e-4 0.308679,-0.0281 0.461555,-0.007 0.119793,0.0254 0.240858,0.0397 0.362982,0.0464 0.131453,-2.4e-4 0.262292,0.022 0.38762,0.0612 0.116837,0.0466 0.244052,0.0492 0.363556,0.0827 0.09566,0.0168 0.181422,0.0571 0.27032,0.0934 0.04375,0.0224 0.08512,0.0325 0.133566,0.0325 0.06311,-0.008 0.110903,0.007 0.168673,0.0274 0.0381,0.0132 0.0763,0.0263 0.11437,0.0396 0.14614,0.21664 -0.400959,0.58572 -0.54711,0.36908 v 0 c -0.03672,-0.0138 -0.07364,-0.0272 -0.111019,-0.0392 -0.05266,-0.0155 -0.106791,-0.008 -0.16119,-0.0145 -0.0508,-0.008 -0.09667,-0.0288 -0.143412,-0.0501 -0.08539,-0.0361 -0.171712,-0.0677 -0.263011,-0.0861 -0.122201,-0.0249 -0.245634,-0.0438 -0.364017,-0.0851 -0.124663,-0.0307 -0.250854,-0.0495 -0.379513,-0.0502 -0.12242,-0.009 -0.242919,-0.0286 -0.364066,-0.0477 -0.152025,-0.006 -0.303832,0.011 -0.455925,0.0106 -0.177231,-0.002 -0.351279,-0.0339 -0.528463,-0.0397 -0.184274,-0.0141 -0.369975,-0.0408 -0.554527,-0.0173 -0.159991,0.0188 -0.319852,0.0469 -0.481436,0.0284 -0.208208,-0.0138 -0.41615,-0.0317 -0.622927,-0.0602 -0.148844,-0.0163 -0.299156,-0.0243 -0.443701,-0.0671 -0.08233,-0.0175 -0.160986,-0.0356 -0.220369,-0.10034 -0.06783,-0.0539 -0.148965,-0.068 -0.22621,-0.10499 -0.10041,-0.0524 -0.207727,-0.0937 -0.292381,-0.17163 -0.07369,-0.0596 -0.152384,-0.11165 -0.223157,-0.17483 -0.06567,-0.0559 -0.134234,-0.11139 -0.162386,-0.19641 -0.0281,-0.0638 -0.04841,-0.12962 -0.09328,-0.18452 -0.055,-0.0815 -0.107349,-0.1653 -0.168518,-0.24211 -0.07567,-0.0846 -0.140552,-0.17799 -0.205965,-0.2706 -0.07078,-0.0817 -0.152908,-0.14847 -0.242784,-0.20872 -0.08571,-0.061 -0.180663,-0.10817 -0.283258,-0.13338 -0.08527,-0.0177 -0.169455,-0.0397 -0.254868,-0.0565 -0.129595,-0.012 -0.260413,-0.008 -0.389704,-0.0256 -0.141158,-0.016 -0.280951,-0.0487 -0.423596,-0.0453 -0.151863,-5.3e-4 -0.303728,-2.1e-4 -0.455591,-2.6e-4 -0.140457,2.4e-4 -0.281043,5.2e-4 -0.421243,0.0101 -0.180986,0.0144 -0.360852,0.0393 -0.537213,0.0836 -0.191349,0.0389 -0.384299,0.0684 -0.578411,0.0895 -0.146732,0.0196 -0.295447,0.0229 -0.440272,0.0549 -0.113871,0.0314 -0.225081,0.0738 -0.330951,0.12623 -0.431067,0.21176 0.756848,-0.47939 0.322556,-0.18246 -0.01672,0.0114 -0.03512,0.0202 -0.05268,0.0304 -0.03777,0.0282 -0.08809,0.0749 -0.126934,0.0985 -0.428408,0.25945 -1.095369,0.63384 -0.0787,0.0477 0.014,-0.008 -0.02697,0.0177 -0.04046,0.0266 -0.09302,0.0617 -0.180729,0.1285 -0.268066,0.19847 -0.09691,0.0704 -0.186317,0.14997 -0.279558,0.22532 -0.07243,0.0782 -0.169728,0.13622 -0.256882,0.19612 -0.308723,0.18112 -0.613,0.37573 -0.938471,0.52719 -0.128641,0.0529 -0.266026,0.0933 -0.405916,0.0963 -0.129128,-0.008 -0.254839,-0.045 -0.38489,-0.0399 -0.114199,0 -0.228399,7e-5 -0.342595,-5.3e-4 -0.131313,8e-5 -0.262702,-2e-4 -0.393907,0.006 -0.125825,0.008 -0.251216,0.0209 -0.373724,0.0521 -0.143004,0.0297 -0.289142,0.0332 -0.434242,0.0473 -0.17205,0.0106 -0.342421,-0.009 -0.514281,2.6e-4 -0.160875,0.023 -0.32117,0.0329 -0.483865,0.0288 -0.158848,0.005 -0.317976,0.0118 -0.474715,0.0402 -0.162684,0.0276 -0.326485,0.0464 -0.488492,0.0774 -0.150191,0.0378 -0.299882,0.0783 -0.454695,0.0932 -0.174778,0.0168 -0.346683,0.0479 -0.518057,0.086 -0.17726,0.0303 -0.352253,0.0726 -0.530984,0.0945 -0.234894,0.0373 -0.471564,0.0609 -0.707803,0.088 -0.267313,0.0182 -0.533543,0.0513 -0.801457,0.0592 -0.253836,0.0123 -0.506738,0.0344 -0.759939,0.0554 -0.15227,-0.20958 0.377002,-0.59412 0.52927,-0.38453 z"
       inkscape:connector-curvature="0" />
    <path
       style="color:#000000;clip-rule:nonzero;display:inline;overflow:visible;visibility:visible;opacity:1;isolation:auto;mix-blend-mode:normal;color-interpolation:sRGB;color-interpolation-filters:linearRGB;solid-color:#000000;solid-opacity:1;fill:#ffffff;fill-opacity:1;fill-rule:nonzero;stroke:none;stroke-width:0.25;stroke-linecap:round;stroke-linejoin:round;stroke-miterlimit:4;stroke-dasharray:none;stroke-dashoffset:0;stroke-opacity:1;color-rendering:auto;image-rendering:auto;shape-rendering:auto;text-rendering:auto;enable-background:accumulate"
       id="path931"
       d="m 99.42429,281.27882 c 0.168791,-0.1173 0.299035,-0.27748 0.423342,-0.43885 0.0745,-0.0984 0.155358,-0.19153 0.220958,-0.29627 0.0422,-0.0797 0.10492,-0.14129 0.16976,-0.20224 0.0903,-0.0765 0.17584,-0.15669 0.27259,-0.22514 0.094,-0.0738 0.18549,-0.15058 0.28297,-0.21986 0.0817,-0.0559 0.15191,-0.12588 0.23007,-0.18605 0.30922,-0.26506 0.60497,-0.34595 0.94744,-0.47949 0.13404,-0.0404 0.26856,-0.0809 0.40489,-0.11342 0.14436,-0.0252 0.29104,-0.0324 0.43729,-0.0366 0.12471,-0.002 0.24946,-10e-4 0.37419,-5.3e-4 0.16346,10e-4 0.32693,7.9e-4 0.4904,7.9e-4 0.16602,0.0284 0.33269,0.0467 0.50078,0.0566 0.1827,0.0204 0.36298,-0.0121 0.54392,-0.0328 0.14491,-0.0165 0.29072,-0.0212 0.43642,-0.0236 0.11936,-0.002 0.23487,0.0354 0.35311,0.0505 0.10888,0.0116 0.21845,0.0136 0.32785,0.0147 0.10606,5.3e-4 0.21213,5.3e-4 0.3182,5.3e-4 0.12985,-2e-5 0.2597,-5e-5 0.38956,-6e-5 0.12986,-0.0222 0.25888,-0.0401 0.38437,-0.0807 0.10144,-0.0322 0.20759,-0.043 0.3132,-0.0506 0.086,-0.004 0.17209,-0.002 0.25813,-0.002 0.0717,-1e-5 0.14341,2.6e-4 0.21512,2.6e-4 0.0805,0.0306 0.16388,0.0475 0.24892,0.0584 0.0652,-0.007 0.10956,0.0397 0.16662,0.0585 0.0374,0.0146 0.0774,0.015 0.11705,0.0162 0.0206,-2.5e-4 0.041,-10e-4 0.0616,-10e-4 0.0318,-0.002 0.0385,-0.002 0.0635,0.0228 0.0138,0.009 0.0481,0.0671 0.0504,0.0463 0.0508,-0.013 0.0866,0.004 0.129,0.0293 0.0571,0.0434 0.10878,0.0929 0.15933,0.14367 0.0485,0.0427 0.0883,0.0914 0.12393,0.14477 0.038,0.0522 0.0892,0.09 0.12936,0.14202 0.0466,0.0711 0.0584,0.15273 0.0652,0.2356 -0.004,0.0837 0.0278,0.16036 0.0342,0.2429 -0.0116,0.095 -1.5e-4,0.047 -0.0369,0.14344 0.10702,0.23539 -0.48743,0.50566 -0.59445,0.27027 v 0 c 0.0449,-0.0748 0.0297,-0.0363 0.0485,-0.11429 0.002,-0.0832 -0.0429,-0.1559 -0.0345,-0.24013 -0.004,-0.0699 -0.008,-0.14062 -0.0466,-0.2013 -0.041,-0.052 -0.0984,-0.0874 -0.13191,-0.14525 -0.0345,-0.0487 -0.0718,-0.0942 -0.11644,-0.13429 -0.0471,-0.0451 -0.0935,-0.0928 -0.15021,-0.12586 -0.0402,-0.0162 -0.0875,-0.002 -0.12725,-0.0241 -0.0191,-0.0181 -0.0343,-0.04 -0.0558,-0.0552 -0.005,0.0141 -0.0298,0.006 -0.043,0.008 -0.0216,-10e-6 -0.0432,1.1e-4 -0.0647,-0.003 -0.0443,-0.006 -0.0878,-0.0146 -0.12821,-0.0345 -0.0503,-0.0256 -0.0979,-0.0437 -0.15557,-0.0457 -0.0822,-0.0139 -0.16153,-0.0408 -0.24406,-0.0501 -0.0715,-2.7e-4 -0.14295,-5.3e-4 -0.21442,-8e-4 -0.0849,-1.8e-4 -0.17005,-1.6e-4 -0.25475,0.007 -0.10303,0.01 -0.20494,0.0277 -0.30355,0.06 -0.12899,0.0342 -0.26214,0.055 -0.39508,0.0653 -0.13,5e-5 -0.26,1.3e-4 -0.39,5.3e-4 -0.10686,2.7e-4 -0.21373,10e-4 -0.32058,-2.6e-4 -0.11056,-0.003 -0.22134,-0.008 -0.33108,-0.0222 -0.11498,-0.0177 -0.22876,-0.0508 -0.34614,-0.0426 -0.14408,0.003 -0.28815,0.0101 -0.43133,0.0274 -0.18268,0.021 -0.36518,0.0435 -0.54928,0.0224 -0.16766,-0.0113 -0.33335,-0.0349 -0.5003,-0.0519 -0.16371,-2.6e-4 -0.32742,-5.3e-4 -0.49113,-2.6e-4 -0.12458,2.6e-4 -0.2492,-5.3e-4 -0.37374,0.003 -0.14357,0.006 -0.28805,0.0132 -0.42819,0.0474 -0.13432,0.0363 -0.26953,0.071 -0.40035,0.11861 -0.25436,0.0892 -0.8312,0.36965 0.1764,-0.16262 -0.0849,0.0525 -0.14833,0.12682 -0.23074,0.18219 -0.0908,0.0781 -0.19938,0.13628 -0.28322,0.2238 -0.0969,0.0669 -0.18913,0.13637 -0.27263,0.21923 -0.069,0.0505 -0.13116,0.10953 -0.17763,0.18214 -0.0648,0.10901 -0.14205,0.20735 -0.22306,0.30487 -0.12505,0.16302 -0.25168,0.32648 -0.41184,0.45724 0.0945,0.24151 -0.515404,0.48015 -0.6099,0.23864 z"
       inkscape:connector-curvature="0" />
    <path
       style="color:#000000;clip-rule:nonzero;display:inline;overflow:visible;visibility:visible;opacity:1;isolation:auto;mix-blend-mode:normal;color-interpolation:sRGB;color-interpolation-filters:linearRGB;solid-color:#000000;solid-opacity:1;fill:#ffffff;fill-opacity:1;fill-rule:nonzero;stroke:none;stroke-width:0.25;stroke-linecap:round;stroke-linejoin:round;stroke-miterlimit:4;stroke-dasharray:none;stroke-dashoffset:0;stroke-opacity:1;color-rendering:auto;image-rendering:auto;shape-rendering:auto;text-rendering:auto;enable-background:accumulate"
       id="path933"
       d="m 108.73627,279.78945 c 0.16449,0.10934 0.28926,0.26334 0.41823,0.41027 0.10719,0.12794 0.19072,0.27252 0.28713,0.40825 0.0503,0.0614 0.097,0.11078 0.10294,0.19165 0.11324,0.23473 -0.47956,0.52069 -0.59279,0.28596 v 0 c 0.0495,-0.035 -0.0596,-0.1118 -0.073,-0.14616 -0.0928,-0.13521 -0.17664,-0.27661 -0.28108,-0.40347 -0.12557,-0.14326 -0.24678,-0.29476 -0.41298,-0.39334 -0.13985,-0.21841 0.41171,-0.57156 0.55155,-0.35316 z"
       inkscape:connector-curvature="0" />
    <path
       style="color:#000000;clip-rule:nonzero;display:inline;overflow:visible;visibility:visible;opacity:1;isolation:auto;mix-blend-mode:normal;color-interpolation:sRGB;color-interpolation-filters:linearRGB;solid-color:#000000;solid-opacity:1;fill:#ffffff;fill-opacity:1;fill-rule:nonzero;stroke:none;stroke-width:0.25;stroke-linecap:round;stroke-linejoin:round;stroke-miterlimit:4;stroke-dasharray:none;stroke-dashoffset:0;stroke-opacity:1;color-rendering:auto;image-rendering:auto;shape-rendering:auto;text-rendering:auto;enable-background:accumulate"
       id="path935"
       d="m 108.98727,279.76315 c 0.0279,-0.0138 0.0562,-0.0271 0.0838,-0.0415 0.0322,-0.0168 0.12705,-0.0706 0.0956,-0.0523 -0.15155,0.088 -0.60762,0.3494 -0.45602,0.26153 0.2167,-0.12561 0.43429,-0.24966 0.6513,-0.37472 0.15451,-0.089 -0.61895,0.35459 -0.4638,0.26666 0.21458,-0.1216 0.42807,-0.24513 0.64211,-0.36771 0.0269,-0.0155 0.10772,-0.062 0.0807,-0.0466 -1.1523,0.65774 0.0642,-0.0271 0.41489,-0.23053 0.31443,-0.18116 -0.20103,0.11617 -0.37577,0.21143 -0.0276,0.015 0.0524,-0.0347 0.0784,-0.0522 0.0626,-0.0422 0.12421,-0.0857 0.1854,-0.12993 0.23654,-0.17487 0.47601,-0.40421 0.7699,-0.45493 0.0471,-0.0478 0.11778,-0.0458 0.1731,-0.0775 0.0873,-0.0298 0.17617,-0.0446 0.26202,-0.0787 0.093,10e-4 0.19115,-0.003 0.2799,0.0272 0.0813,0.0295 0.16589,0.0472 0.25181,0.0553 0.0998,0.0272 0.18581,0.0855 0.27752,0.13114 0.13227,0.0492 0.25768,0.1096 0.37467,0.18854 0.15622,0.12057 0.31781,0.23385 0.47503,0.35307 0.14444,0.0996 0.24781,0.24339 0.3753,0.36109 0.0783,0.0761 0.15825,0.14951 0.22033,0.24004 0.0671,0.0813 0.14384,0.15407 0.21945,0.22729 0.0966,0.09 0.17422,0.19578 0.26897,0.2876 0.11213,0.0857 0.22574,0.16935 0.34219,0.24898 0.0964,0.0692 0.19806,0.13052 0.29533,0.19854 0.0782,0.0696 0.16154,0.11008 0.26334,0.13173 0.12407,0.0361 0.248,0.0593 0.37722,0.0709 0.18011,0.0228 0.3558,0.009 0.53364,-0.0195 0.12462,-0.0272 0.23768,-0.0835 0.35746,-0.12391 0.10156,-0.0401 0.19434,-0.0962 0.29077,-0.14728 0.0613,-0.0329 0.13813,-0.0342 0.20346,-0.015 0.12261,0.0235 0.19568,0.12483 0.27063,0.21519 0.0936,0.11751 0.15998,0.24665 0.19977,0.39099 0.0345,0.12199 0.0211,0.25022 0.0407,0.37387 0.006,0.004 0.0119,0.008 0.0179,0.0117 0.13531,0.2222 -0.42582,0.5639 -0.56112,0.3417 v 0 c -0.0119,-0.0151 -0.0239,-0.0301 -0.0358,-0.0452 -0.0241,-0.12163 -0.005,-0.24899 -0.0362,-0.37038 -0.0342,-0.13639 -0.0961,-0.25658 -0.1854,-0.36592 -0.0695,-0.0813 -0.13356,-0.16404 -0.24791,-0.17429 -0.0647,2.7e-4 -0.12316,0.0131 -0.17808,0.0489 -0.0962,0.0507 -0.19145,0.10354 -0.29477,0.13904 -0.11852,0.0465 -0.23812,0.0904 -0.36418,0.11242 -0.18023,0.0249 -0.36018,0.0239 -0.54137,0.005 -0.13164,-0.014 -0.25848,-0.0417 -0.38594,-0.0768 -0.10432,-0.0304 -0.19347,-0.0805 -0.27668,-0.15062 -0.0984,-0.0662 -0.19678,-0.13244 -0.29426,-0.19995 -0.11731,-0.084 -0.23622,-0.1661 -0.34736,-0.25822 -0.0942,-0.0923 -0.17257,-0.19812 -0.27042,-0.28681 -0.0779,-0.0768 -0.15909,-0.15109 -0.22654,-0.23754 -0.0605,-0.0857 -0.13777,-0.15584 -0.21154,-0.22981 -0.12213,-0.11946 -0.22552,-0.259 -0.36766,-0.35715 -0.15686,-0.11805 -0.31745,-0.23103 -0.47544,-0.34757 -0.11762,-0.0744 -0.24451,-0.12748 -0.37252,-0.18139 -0.0855,-0.0442 -0.16981,-0.0973 -0.26673,-0.1112 -0.0871,-0.0137 -0.1718,-0.0366 -0.25608,-0.0623 -0.0842,-0.0132 -0.17422,-0.0215 -0.25658,0.004 -0.0867,0.0281 -0.17791,0.0423 -0.26046,0.0827 -0.0619,0.0193 -0.11777,0.0489 -0.17706,0.0737 -0.20931,0.11322 0.028,-0.0148 0.51249,-0.29683 0.0108,-0.006 -0.0225,0.0111 -0.0335,0.017 -0.045,0.0244 -0.0815,0.0574 -0.12081,0.09 -0.31822,0.23128 -0.65622,0.43132 -1.00183,0.62014 -0.12366,0.0686 -0.0537,0.0306 -0.17714,0.0962 -0.0272,0.0144 -0.10801,0.0592 -0.0816,0.0434 1.04925,-0.62536 0.13182,-0.0617 -0.23787,0.13703 0.99613,-0.57956 0.20024,-0.11601 -0.17666,0.10076 -0.15311,0.0881 0.61157,-0.35376 0.45834,-0.26591 -0.27884,0.15989 -0.55247,0.32749 -0.83701,0.47662 -0.16293,-0.20138 0.34563,-0.61283 0.50856,-0.41145 z"
       inkscape:connector-curvature="0" />
    <path
       style="color:#000000;clip-rule:nonzero;display:inline;overflow:visible;visibility:visible;opacity:1;isolation:auto;mix-blend-mode:normal;color-interpolation:sRGB;color-interpolation-filters:linearRGB;solid-color:#000000;solid-opacity:1;fill:#ffffff;fill-opacity:1;fill-rule:nonzero;stroke:none;stroke-width:0.25;stroke-linecap:round;stroke-linejoin:round;stroke-miterlimit:4;stroke-dasharray:none;stroke-dashoffset:0;stroke-opacity:1;color-rendering:auto;image-rendering:auto;shape-rendering:auto;text-rendering:auto;enable-background:accumulate"
       id="path951"
       d="m 106.26862,280.08847 c -0.14099,0.0616 -0.26145,0.15661 -0.37872,0.25431 -0.1829,0.16555 -0.35134,0.35046 -0.49112,0.55426 -0.0279,0.0407 -0.0527,0.0835 -0.0791,0.12522 -0.0801,-0.0312 -0.001,-0.23335 0.0787,-0.2022 v 0 c 0.0267,-0.0412 0.0519,-0.0834 0.0801,-0.12358 0.14284,-0.20422 0.3125,-0.39039 0.4977,-0.55667 0.12068,-0.10022 0.24515,-0.19661 0.3891,-0.26162 0.0833,0.0383 -0.0134,0.24855 -0.0966,0.21028 z"
       inkscape:connector-curvature="0" />
    <path
       style="color:#000000;clip-rule:nonzero;display:inline;overflow:visible;visibility:visible;opacity:1;isolation:auto;mix-blend-mode:normal;color-interpolation:sRGB;color-interpolation-filters:linearRGB;solid-color:#000000;solid-opacity:1;fill:#ffffff;fill-opacity:1;fill-rule:nonzero;stroke:none;stroke-width:0.25;stroke-linecap:round;stroke-linejoin:round;stroke-miterlimit:4;stroke-dasharray:none;stroke-dashoffset:0;stroke-opacity:1;color-rendering:auto;image-rendering:auto;shape-rendering:auto;text-rendering:auto;enable-background:accumulate"
       id="path953"
       d="m 105.14287,280.15827 c -0.15532,0.0509 -0.27619,0.15948 -0.39514,0.26687 -0.13785,0.1321 -0.24946,0.28647 -0.36154,0.43994 -0.0771,-0.0306 8e-5,-0.22538 0.0772,-0.1948 v 0 c 0.11448,-0.15561 0.22841,-0.31223 0.36881,-0.44621 0.12314,-0.11117 0.24858,-0.22044 0.40813,-0.27536 0.083,0.0386 -0.0145,0.24816 -0.0975,0.20956 z"
       inkscape:connector-curvature="0" />
    <path
       style="color:#000000;clip-rule:nonzero;display:inline;overflow:visible;visibility:visible;opacity:1;isolation:auto;mix-blend-mode:normal;color-interpolation:sRGB;color-interpolation-filters:linearRGB;solid-color:#000000;solid-opacity:1;fill:#ffffff;fill-opacity:1;fill-rule:nonzero;stroke:none;stroke-width:0.25;stroke-linecap:round;stroke-linejoin:round;stroke-miterlimit:4;stroke-dasharray:none;stroke-dashoffset:0;stroke-opacity:1;color-rendering:auto;image-rendering:auto;shape-rendering:auto;text-rendering:auto;enable-background:accumulate"
       id="path955"
       d="m 103.74293,280.13524 c -0.21039,0.11686 -0.39012,0.28151 -0.56918,0.44036 -0.1333,0.11606 -0.25199,0.24595 -0.36658,0.37995 -0.0792,-0.0321 0.002,-0.23214 0.0812,-0.2 v 0 c 0.1159,-0.13193 0.23553,-0.26015 0.36796,-0.37599 0.18372,-0.16344 0.36769,-0.3336 0.58325,-0.4546 0.0833,0.0383 -0.0134,0.24855 -0.0966,0.21028 z"
       inkscape:connector-curvature="0" />
    <path
       style="color:#000000;clip-rule:nonzero;display:inline;overflow:visible;visibility:visible;opacity:1;isolation:auto;mix-blend-mode:normal;color-interpolation:sRGB;color-interpolation-filters:linearRGB;solid-color:#000000;solid-opacity:1;fill:#ffffff;fill-opacity:1;fill-rule:nonzero;stroke:none;stroke-width:0.25;stroke-linecap:round;stroke-linejoin:round;stroke-miterlimit:4;stroke-dasharray:none;stroke-dashoffset:0;stroke-opacity:1;color-rendering:auto;image-rendering:auto;shape-rendering:auto;text-rendering:auto;enable-background:accumulate"
       id="path957"
       d="m 102.28769,280.11439 c -0.21397,0.0976 -0.39026,0.25286 -0.5603,0.41186 -0.1181,0.11165 -0.21295,0.24167 -0.30411,0.37508 -0.0798,-0.0314 -5.3e-4,-0.23281 0.0792,-0.20143 v 0 c 0.0929,-0.13212 0.18938,-0.26109 0.30791,-0.3721 0.17486,-0.16229 0.35637,-0.31914 0.57332,-0.42317 0.0831,0.038 -0.013,0.2478 -0.0961,0.20976 z"
       inkscape:connector-curvature="0" />
  </g>
</svg>
