<?xml version="1.0" encoding="UTF-8" standalone="no"?>
<!-- Created with Inkscape (http://www.inkscape.org/) -->

<svg
   xmlns:dc="http://purl.org/dc/elements/1.1/"
   xmlns:cc="http://creativecommons.org/ns#"
   xmlns:rdf="http://www.w3.org/1999/02/22-rdf-syntax-ns#"
   xmlns:svg="http://www.w3.org/2000/svg"
   xmlns="http://www.w3.org/2000/svg"
   xmlns:sodipodi="http://sodipodi.sourceforge.net/DTD/sodipodi-0.dtd"
   xmlns:inkscape="http://www.inkscape.org/namespaces/inkscape"
   width="640"
   height="200"
   viewBox="0 0 169.33333 52.916666"
   version="1.1"
   id="svg8"
   sodipodi:docname="planet.svg"
   inkscape:version="0.92.3 (2405546, 2018-03-11)"
   inkscape:export-filename="/mnt/data/Projects/bottleship/btl-lander/assets/planet.png"
   inkscape:export-xdpi="96"
   inkscape:export-ydpi="96">
  <defs
     id="defs2" />
  <sodipodi:namedview
     id="base"
     pagecolor="#282828"
     bordercolor="#666666"
     borderopacity="1.0"
     inkscape:pageopacity="0"
     inkscape:pageshadow="2"
     inkscape:zoom="1"
     inkscape:cx="488.92784"
     inkscape:cy="79.441047"
     inkscape:document-units="px"
     inkscape:current-layer="layer1"
     showgrid="false"
     inkscape:window-width="1918"
     inkscape:window-height="1044"
     inkscape:window-x="0"
     inkscape:window-y="18"
     inkscape:window-maximized="1"
     units="px"
     inkscape:snap-global="false" />
  <metadata
     id="metadata5">
    <rdf:RDF>
      <cc:Work
         rdf:about="">
        <dc:format>image/svg+xml</dc:format>
        <dc:type
           rdf:resource="http://purl.org/dc/dcmitype/StillImage" />
        <dc:title />
      </cc:Work>
    </rdf:RDF>
  </metadata>
  <g
     inkscape:label="Layer 1"
     inkscape:groupmode="layer"
     id="layer1"
     transform="translate(0,-244.08334)">
    <path
       style="color:#000000;clip-rule:nonzero;display:inline;overflow:visible;visibility:visible;opacity:1;isolation:auto;mix-blend-mode:normal;color-interpolation:sRGB;color-interpolation-filters:linearRGB;solid-color:#000000;solid-opacity:1;fill:#1f1f1f;fill-opacity:1;fill-rule:nonzero;stroke:none;stroke-width:0.25;stroke-linecap:round;stroke-linejoin:round;stroke-miterlimit:4;stroke-dasharray:none;stroke-dashoffset:0;stroke-opacity:1;color-rendering:auto;image-rendering:auto;shape-rendering:auto;text-rendering:auto;enable-background:accumulate"
       d="m -0.18708867,281.28456 v 16.83798 H 170.25069 v -14.59292 c -14.37857,0.15768 -26.95329,-10.46776 -40.88258,-3.24102 -1.18844,0.53097 -3.09832,-2.30384 -4.07542,-2.53043 -1.97522,-0.45806 -2.73714,1.08059 -4.21387,1.98811 -1.45834,0.89621 -1.3572,2.5397 -4.40352,1.47246 -2.96823,1.14276 -4.08472,-3.61739 -6.62607,-2.46297 -6.32077,2.87124 -14.061381,-0.92409 -21.001147,-0.53381 -3.183792,-0.57669 -8.406291,2.08066 -11.686975,2.08144 -6.975686,0.002 -12.08919,-1.79655 -18.772756,-0.46829 -11.655772,-0.0535 -23.226076,-1.53017 -34.844677,0.25114 -8.052236,1.01233 -16.1159606,-1.47292 -23.93076367,1.19828 z"
       id="path888"
       inkscape:connector-curvature="0"
       sodipodi:nodetypes="cccccsscscscccc" />
    <g
       id="g877"
       style="fill:#ffffff"
       transform="translate(0,8.7931673)">
      <path
         inkscape:connector-curvature="0"
         d="m 168.9801,274.62654 c -0.63072,-0.0696 -1.26279,-0.12821 -1.89304,-0.20256 -0.74115,-0.0943 -1.48697,-0.13838 -2.23323,-0.16376 -0.3257,0.01 -0.65292,0.0351 -0.97174,0.10515 -0.11259,0.0315 -0.0552,0.0518 -0.14649,-0.0472 -0.0784,-0.14523 -0.11173,-0.31198 -0.149,-0.47162 -0.0445,-0.21144 -0.10946,-0.41934 -0.20637,-0.61264 -0.10577,-0.17869 -0.21146,-0.35975 -0.29572,-0.54987 -0.0929,-0.17839 -0.17565,-0.35329 -0.30215,-0.51087 -0.16441,-0.20279 -0.40296,-0.31221 -0.64034,-0.40609 -0.36676,-0.15347 -0.75945,-0.22578 -1.14589,-0.31133 -0.42432,-0.0868 -0.85761,-0.10225 -1.28912,-0.11368 -0.50319,-0.009 -1.00649,-0.008 -1.50973,-0.007 -0.38932,0.0218 -0.78652,-0.0342 -1.17301,0.0241 -0.0424,0.008 -0.0849,0.0155 -0.12724,0.0241 -0.0908,0.0187 -0.12217,0.0222 -0.20434,0.0648 -0.0334,0.0173 -0.12897,0.0774 -0.0961,0.0591 0.69127,-0.38373 0.88986,-0.54501 0.56737,-0.29679 -0.23388,0.21479 -0.4845,0.41028 -0.70896,0.6351 -0.20679,0.18483 -0.33308,0.41916 -0.43902,0.67 -0.1238,0.21761 -0.19822,0.4559 -0.29277,0.68629 -0.0533,0.12154 -0.0981,0.24548 -0.12392,0.37572 -0.0667,0.5019 -0.78571,0.54522 -1.19917,0.54693 -0.28413,-0.002 -0.56825,-0.004 -0.85238,-0.006 -0.25362,6e-5 -0.50725,-0.001 -0.76087,-0.001 -0.28665,-0.009 -0.57549,0.0205 -0.85994,-0.02 -0.2699,-0.0533 -0.54254,-0.0844 -0.81698,-0.0998 -0.28803,-0.0134 -0.57645,-0.0133 -0.86472,-0.0136 -0.28114,-0.008 -0.56914,-0.0491 -0.84211,-0.11946 -0.2608,-0.0967 -0.51641,-0.0923 -0.7874,-0.0655 -0.23928,0.026 -0.47956,0.0404 -0.71996,0.0507 -0.10471,-0.006 -0.18235,8e-5 -0.26829,0.0594 -0.22746,-0.28551 0.49357,-0.85992 0.72102,-0.57441 v 0 c 0.0942,-0.0283 0.19026,-0.0256 0.28803,-0.028 0.23883,-0.0101 0.47721,-0.0278 0.71502,-0.0522 0.27624,-0.0214 0.53921,0.001 0.80412,0.0896 0.27174,0.0586 0.55072,0.10487 0.82923,0.10274 0.28934,10e-4 0.57895,2.6e-4 0.86788,0.0179 0.27561,0.0183 0.54823,0.0567 0.82045,0.1033 0.28367,0.0244 0.56908,0.006 0.85355,0.0118 0.25361,-2e-4 0.50723,-7.9e-4 0.76083,0.002 0.28456,0.002 0.56914,0.005 0.85371,0.002 0.0743,-0.002 0.13814,-0.002 0.21191,-0.009 0.0306,-0.003 0.11665,-0.0292 0.0914,-0.0118 -0.22872,0.1581 -0.47288,0.29262 -0.70932,0.43893 0.0393,0.01 0.0286,0.0177 0.0341,-0.0209 0.0239,-0.13692 0.0608,-0.26967 0.12142,-0.39539 0.0944,-0.23089 0.16602,-0.47096 0.29237,-0.68762 0.11029,-0.25528 0.21368,-0.51175 0.42824,-0.70219 0.22077,-0.23132 0.4727,-0.42403 0.70386,-0.6446 0.41452,-0.35231 0.89775,-0.67035 1.44293,-0.73852 0.38932,-0.0312 0.78177,0.002 1.17191,-0.0104 0.50406,2.2e-4 1.00822,-0.003 1.51219,0.008 0.4362,0.013 0.87386,0.0326 1.30174,0.12614 0.39047,0.0886 0.78618,0.16511 1.15639,0.32264 0.25005,0.10528 0.49827,0.22479 0.67027,0.44273 0.12911,0.16524 0.21831,0.34552 0.31346,0.53143 0.0825,0.18932 0.18888,0.36857 0.29432,0.54572 0.0986,0.2002 0.16995,0.41371 0.21465,0.63241 0.0333,0.14344 0.0675,0.29133 0.13075,0.42446 0.006,0.006 0.0177,0.0271 0.0191,0.0184 0.008,-0.0499 -0.0418,-0.024 0.0736,-0.0449 0.31951,-0.0531 0.64361,-0.0783 0.96753,-0.0762 0.74609,0.0305 1.49147,0.0799 2.23272,0.17263 0.6368,0.0714 1.2749,0.13116 1.91277,0.19164 0.20926,0.29678 -0.54024,0.82524 -0.7495,0.52845 z"
         id="path834"
         style="color:#000000;clip-rule:nonzero;display:inline;overflow:visible;visibility:visible;opacity:1;isolation:auto;mix-blend-mode:normal;color-interpolation:sRGB;color-interpolation-filters:linearRGB;solid-color:#000000;solid-opacity:1;fill:#ffffff;fill-opacity:1;fill-rule:nonzero;stroke:none;stroke-width:0.25;stroke-linecap:round;stroke-linejoin:round;stroke-miterlimit:4;stroke-dasharray:none;stroke-dashoffset:0;stroke-opacity:1;color-rendering:auto;image-rendering:auto;shape-rendering:auto;text-rendering:auto;enable-background:accumulate" />
      <path
         inkscape:connector-curvature="0"
         d="m 148.22399,275.18043 c -0.26963,-0.36005 -0.46249,-0.76762 -0.59315,-1.19637 -0.0942,-0.41493 -0.1378,-0.83946 -0.22825,-1.25512 -0.0597,-0.28536 -0.16774,-0.55655 -0.28346,-0.82288 -0.0899,-0.19967 -0.13498,-0.41434 -0.21477,-0.61808 -0.0915,-0.24435 -0.26457,-0.42896 -0.45599,-0.59869 -0.26017,-0.22364 -0.56807,-0.30864 -0.89926,-0.36242 -0.39537,-0.053 -0.78803,-0.11729 -1.18605,-0.14945 -0.3879,-0.0192 -0.77337,-0.023 -1.1588,-0.0725 -0.36511,-0.0499 -0.72369,-0.13313 -1.08952,-0.1817 -0.18077,-0.0114 -0.36537,-0.0746 -0.53098,0.0134 -0.31814,0.11576 -0.15188,0.0589 0.67979,-0.39472 0.0233,-0.0127 -0.0428,0.0315 -0.0636,0.0481 -0.0764,0.0607 -0.14356,0.12219 -0.20726,0.19606 -0.15071,0.19879 -0.24284,0.43476 -0.3233,0.66897 -0.10734,0.30225 -0.26455,0.58346 -0.39997,0.87343 -0.14826,0.38644 -0.28373,0.77811 -0.4151,1.17061 -0.16157,0.50875 -0.30344,1.02115 -0.5214,1.50948 -0.2287,0.4778 -0.56706,0.88733 -0.91461,1.2822 0.13963,0.33181 -0.69833,0.68444 -0.83797,0.35263 v 0 c 0.35131,-0.3875 0.69418,-0.78964 0.93125,-1.25972 0.22504,-0.48209 0.36459,-0.99153 0.52166,-1.49849 0.12702,-0.39548 0.26895,-0.78639 0.40766,-1.17792 0.12686,-0.29044 0.2863,-0.5665 0.40028,-0.86266 0.075,-0.24144 0.16807,-0.48422 0.30841,-0.69535 0.25539,-0.38736 0.78062,-0.59643 1.15962,-0.78075 0.18077,-0.0444 0.36987,0.0179 0.55174,0.0283 0.36378,0.0539 0.72192,0.13769 1.08693,0.18168 0.38424,0.0457 0.76998,0.0426 1.15569,0.0704 0.39944,0.0357 0.79434,0.10056 1.19139,0.15553 0.34341,0.0644 0.66325,0.16652 0.93031,0.40265 0.20017,0.17991 0.38195,0.3781 0.47897,0.63422 0.0823,0.20221 0.12951,0.41463 0.21354,0.6158 0.11725,0.27219 0.22622,0.54961 0.28752,0.84071 0.0913,0.41356 0.13215,0.83671 0.22209,1.25059 0.12377,0.41804 0.3086,0.81775 0.58206,1.16039 0.18673,0.31101 -0.5987,0.78259 -0.78544,0.47157 z"
         id="path836"
         style="color:#000000;clip-rule:nonzero;display:inline;overflow:visible;visibility:visible;opacity:1;isolation:auto;mix-blend-mode:normal;color-interpolation:sRGB;color-interpolation-filters:linearRGB;solid-color:#000000;solid-opacity:1;fill:#ffffff;fill-opacity:1;fill-rule:nonzero;stroke:none;stroke-width:0.25;stroke-linecap:round;stroke-linejoin:round;stroke-miterlimit:4;stroke-dasharray:none;stroke-dashoffset:0;stroke-opacity:1;color-rendering:auto;image-rendering:auto;shape-rendering:auto;text-rendering:auto;enable-background:accumulate" />
      <path
         inkscape:connector-curvature="0"
         d="m 139.18761,273.5886 c -0.72395,-0.0682 -1.45073,-0.0952 -2.17729,-0.11608 -0.86014,-0.0402 -1.71854,-0.009 -2.57735,0.039 -0.59172,0.0385 -1.18428,0.0601 -1.7771,0.0705 -0.42331,0.006 -0.84669,0.006 -1.27004,0.006 -0.30308,0.005 -0.60071,-0.0659 -0.90103,-0.0999 -0.30191,-0.0701 -0.60702,-0.11913 -0.91583,-0.144 -0.20064,-0.0416 -0.40075,-0.058 -0.60496,-0.065 -0.20987,-0.29167 0.52671,-0.82166 0.73657,-0.52999 v 0 c 0.20563,0.0118 0.40833,0.0319 0.6118,0.0647 0.30961,0.0291 0.61389,0.0868 0.9191,0.14527 0.29643,0.0374 0.59135,0.10324 0.89161,0.0933 0.42169,8e-4 0.84339,0.001 1.26505,-0.005 0.58878,-0.0104 1.17725,-0.0311 1.76514,-0.0658 0.85978,-0.0445 1.7192,-0.0697 2.58005,-0.0318 0.73201,0.0217 1.46324,0.0566 2.19422,0.10056 0.21288,0.293 -0.52706,0.8306 -0.73994,0.5376 z"
         id="path838"
         style="color:#000000;clip-rule:nonzero;display:inline;overflow:visible;visibility:visible;opacity:1;isolation:auto;mix-blend-mode:normal;color-interpolation:sRGB;color-interpolation-filters:linearRGB;solid-color:#000000;solid-opacity:1;fill:#ffffff;fill-opacity:1;fill-rule:nonzero;stroke:none;stroke-width:0.25;stroke-linecap:round;stroke-linejoin:round;stroke-miterlimit:4;stroke-dasharray:none;stroke-dashoffset:0;stroke-opacity:1;color-rendering:auto;image-rendering:auto;shape-rendering:auto;text-rendering:auto;enable-background:accumulate" />
      <path
         inkscape:connector-curvature="0"
         d="m 129.19887,274.35944 c -0.19474,-0.50296 -0.34187,-1.02439 -0.47166,-1.54759 -0.11684,-0.38846 -0.19528,-0.78699 -0.32499,-1.17153 -0.0896,-0.21853 -0.18741,-0.43755 -0.30753,-0.64152 -0.0668,-0.14077 -0.14667,-0.27351 -0.236,-0.40098 -0.0108,-0.007 -0.0204,-0.0168 -0.0324,-0.0219 -0.0975,-0.0412 -0.43687,0.19175 -0.27918,0.10336 0.21998,-0.12329 0.43784,-0.25032 0.65675,-0.37548 -0.25933,0.14794 -0.47664,0.34885 -0.69727,0.54653 -0.34225,0.28993 -0.82155,0.82948 -1.21334,0.44858 -0.16961,-0.24089 -0.38075,-0.44815 -0.55176,-0.68721 -0.14871,-0.20875 -0.25738,-0.44214 -0.37814,-0.66734 -0.1847,-0.26111 -0.34046,-0.54292 -0.53255,-0.79861 -0.17928,-0.27424 -0.31023,-0.37904 -0.64233,-0.33818 -0.19751,0.097 -0.95422,0.47159 0.51213,-0.29543 0.0562,-0.0294 -0.10614,0.0693 -0.15789,0.10592 -0.167,0.11805 -0.32279,0.24912 -0.47833,0.38157 -0.28225,0.24684 -0.48991,0.55466 -0.67226,0.8787 -0.13919,0.29855 -0.34077,0.54086 -0.59381,0.74746 -0.54472,0.43694 -0.98577,0.65109 -1.62322,0.70394 -0.14902,0.0132 -0.29862,-7.9e-4 -0.44561,0.0335 -0.29245,0.068 -0.90831,0.46932 0.37551,-0.25956 -0.24239,0.13389 -0.46936,0.29206 -0.68351,0.46707 -0.11474,0.10036 -0.23522,0.19584 -0.32247,0.32201 -0.0558,0.12517 -0.1063,0.24691 -0.19819,0.35093 -0.34172,0.32912 -0.78288,0.54919 -1.22695,0.70988 -0.31434,0.0629 -0.63108,0.11638 -0.94839,0.16381 -0.21743,0.0417 -0.43242,0.0947 -0.64662,0.15032 -0.22044,-0.28824 0.50747,-0.84492 0.7279,-0.55669 v 0 c 0.2146,-0.0519 0.42972,-0.10216 0.6473,-0.1402 0.31528,-0.0501 0.63488,-0.0945 0.94156,-0.1835 0.82474,-0.34054 -1.0817,0.7151 -0.34577,0.20843 0.10627,-0.0917 0.17299,-0.19404 0.20685,-0.33186 0.0809,-0.14056 0.18796,-0.24796 0.31501,-0.34969 0.21085,-0.18244 0.43721,-0.34639 0.68062,-0.48308 0.79318,-0.45301 0.88974,-0.62533 1.65669,-0.64543 0.15154,-0.0167 0.30199,-0.0328 0.44751,-0.0815 0.0429,-0.0144 0.16372,-0.0755 0.12555,-0.0513 -0.17372,0.1103 -0.97437,0.57842 -0.53217,0.31288 0.25619,-0.19631 0.47512,-0.41445 0.60993,-0.71464 0.17806,-0.33308 0.38343,-0.65022 0.66167,-0.90962 0.50125,-0.43713 1.06453,-0.87953 1.70406,-1.07589 0.34772,10e-4 0.50547,0.12666 0.6903,0.41473 0.19221,0.26119 0.35413,0.54401 0.54213,0.80833 0.12005,0.22126 0.22437,0.45259 0.37124,0.65799 0.16696,0.23354 0.37091,0.43867 0.54372,0.66812 0.0224,0.0175 0.0417,0.0399 0.0672,0.0524 0.024,0.0117 0.0996,0.003 0.0779,0.0185 -1.2534,0.90402 -0.81906,0.52499 -0.56053,0.3102 0.22509,-0.19611 0.43407,-0.40946 0.69358,-0.56271 0.30339,-0.17631 0.60502,-0.35567 0.91017,-0.52892 0.13403,-0.0761 0.28195,-0.0965 0.39218,0.0267 0.0873,0.13116 0.1694,0.26512 0.23665,0.40783 0.12284,0.20953 0.21878,0.43722 0.31073,0.66126 0.13138,0.38739 0.20783,0.7895 0.32275,1.18181 0.12368,0.5185 0.26525,1.03783 0.4743,1.52885 0.17769,0.31638 -0.6213,0.76511 -0.79898,0.44873 z"
         id="path840"
         style="color:#000000;clip-rule:nonzero;display:inline;overflow:visible;visibility:visible;opacity:1;isolation:auto;mix-blend-mode:normal;color-interpolation:sRGB;color-interpolation-filters:linearRGB;solid-color:#000000;solid-opacity:1;fill:#ffffff;fill-opacity:1;fill-rule:nonzero;stroke:none;stroke-width:0.25;stroke-linecap:round;stroke-linejoin:round;stroke-miterlimit:4;stroke-dasharray:none;stroke-dashoffset:0;stroke-opacity:1;color-rendering:auto;image-rendering:auto;shape-rendering:auto;text-rendering:auto;enable-background:accumulate" />
      <path
         inkscape:connector-curvature="0"
         d="m 117.5038,273.4362 c -0.50795,-0.0578 -1.00077,-0.2035 -1.49666,-0.32262 -0.47677,-0.11744 -0.94368,-0.27074 -1.42381,-0.37425 -0.23938,-0.07 -0.50081,-0.11434 -0.68973,-0.28799 -0.13752,-0.11405 -0.23503,-0.26626 -0.36179,-0.39096 -0.14172,-0.14767 -0.26589,-0.30582 -0.36557,-0.48443 -0.074,-0.10387 -0.12914,-0.21707 -0.17462,-0.33583 -0.0773,-0.0609 -0.16894,-0.0976 -0.26342,-0.12345 -0.17333,-0.0917 -0.35623,-0.16876 -0.54582,-0.21963 -0.28221,-0.10051 -0.57549,-0.16004 -0.86374,-0.23969 -0.31357,-0.0605 -0.62658,-0.12601 -0.93478,-0.21045 -0.31168,-0.093 -0.63431,-0.13066 -0.95751,-0.15345 -0.28434,-0.0158 -0.56927,-0.0143 -0.85394,-0.0141 -0.25729,-0.0239 -0.50051,0.0203 -0.75061,0.0692 -0.20152,0.0355 -0.38513,0.12949 -0.57086,0.2104 1.36373,-0.86912 0.51156,-0.27123 0.23016,0.005 -0.14259,0.15659 -0.29115,0.30579 -0.44966,0.44615 -0.147,0.11443 -0.30208,0.2182 -0.45531,0.32411 -0.3265,0.23419 -0.69203,0.41602 -1.04533,0.60066 -0.0327,0.0171 -0.23687,0.0822 -0.28722,0.1015 -0.21069,0.0725 -0.43243,0.0832 -0.65278,0.0942 -0.24187,-0.0142 -0.47367,0.0545 -0.71064,0.0907 -0.23735,0.0505 -0.45665,0.12961 -0.70295,0.12413 -0.31723,-0.0261 -0.63438,-0.0513 -0.95238,-0.066 -0.2533,-0.0105 -0.50684,-0.0121 -0.76032,-0.013 -0.26227,-10e-4 -0.52406,0.009 -0.78487,-0.0204 -0.42198,-0.059 -0.846949,-0.0847 -1.272373,-0.10068 -0.42513,0.0258 -0.848466,0.0718 -1.273739,0.0968 -0.445762,0.0383 -0.889711,-0.0242 -1.33338,-0.0605 -0.454753,-0.0345 -0.910895,-0.0427 -1.366751,-0.0475 -0.260387,-0.002 -0.520795,-0.002 -0.781182,5.3e-4 -0.129471,0.0134 -0.231886,-0.0128 -0.330147,-0.10009 -0.139843,-0.099 -0.206232,-0.2669 -0.275884,-0.41786 -0.110879,-0.19816 -0.292383,-0.33761 -0.450791,-0.49532 -0.162812,-0.1677 -0.324689,-0.33632 -0.489077,-0.50249 -0.17512,-0.16141 -0.391044,-0.25452 -0.608775,-0.34309 -0.308888,-0.0781 -0.624377,-0.13332 -0.938636,-0.1876 -0.300019,-0.0273 -0.593569,-0.08 -0.889285,-0.13529 -0.285563,-0.0775 -0.563402,-0.17875 -0.852509,-0.24198 -0.383384,-0.0541 -0.763432,-0.12819 -1.148228,-0.17334 -0.395986,-0.0429 -0.794539,-0.0469 -1.192366,-0.0514 -0.480566,0.0151 -0.948905,0.12322 -1.414743,0.23272 -0.387284,0.11623 -0.776621,0.25698 -1.131695,0.45301 -0.371176,0.13235 -1.307636,0.69564 0.160555,-0.14901 -0.136951,0.0839 -0.255088,0.19481 -0.361553,0.31418 -0.170662,0.23735 -0.358265,0.46017 -0.545325,0.68442 -0.384363,0.54286 -0.867764,0.74106 -1.464627,1.08331 -0.300387,0.13319 -0.63159,0.12471 -0.949172,0.17899 -0.283228,0.0464 -0.560676,0.119 -0.843156,0.16848 -0.458046,0.0641 -0.921689,0.0665 -1.383273,0.0727 -0.400489,0.0266 -0.196808,0.007 -0.610907,0.0602 -0.213032,-0.28583 0.508796,-0.82382 0.721828,-0.53799 v 0 c 0.420259,-0.049 0.213694,-0.0312 0.619572,-0.0547 0.461132,-0.008 0.925029,-0.0141 1.38108,-0.0902 0.281742,-0.0563 0.561301,-0.12291 0.845535,-0.16662 0.315407,-0.0437 0.641154,-0.0534 0.930537,-0.20292 -1.249683,0.7415 -0.6364,0.40897 -0.404157,0.20928 0.122653,-0.10546 0.214837,-0.23837 0.316648,-0.36255 0.18124,-0.22675 0.380662,-0.43776 0.540951,-0.68113 0.09474,-0.13397 0.219282,-0.24266 0.34742,-0.34455 0.468299,-0.27076 0.912862,-0.54743 1.409856,-0.75322 0.364762,-0.1794 0.747262,-0.33009 1.141137,-0.43127 0.470135,-0.10822 0.944099,-0.21022 1.428877,-0.21619 0.400336,0.004 0.801415,0.0107 1.199391,0.0588 0.38676,0.0489 0.770739,0.11834 1.155517,0.17965 0.287478,0.068 0.565841,0.16739 0.852871,0.23769 0.294373,0.0568 0.589397,0.0975 0.886677,0.13573 0.319077,0.0578 0.642882,0.10539 0.952582,0.20245 0.226436,0.0968 0.450853,0.19819 0.629407,0.37326 0.163121,0.16716 0.326424,0.33412 0.489193,0.50162 0.164666,0.16638 0.354177,0.31339 0.468083,0.52249 0.06461,0.13932 0.124018,0.29093 0.256047,0.37927 0.09098,0.0591 0.189302,0.052 0.294262,0.0502 0.258175,10e-4 0.516356,0.002 0.774507,0.006 0.456433,0.008 0.913162,0.0183 1.368422,0.054 0.441664,0.037 0.883957,0.0911 1.32756,0.0487 0.426151,-0.0264 0.850617,-0.0778 1.277566,-0.0883 0.42748,0.0185 0.85393,0.0481 1.27859,0.10199 0.26105,0.0181 0.52238,0.009 0.78395,0.0113 0.25347,0.002 0.50694,0.006 0.76015,0.0182 0.31674,0.017 0.63257,0.0474 0.94948,0.0602 0.23935,-0.0157 0.46023,-0.1001 0.69648,-0.13529 0.23802,-0.0407 0.47372,-0.0925 0.71703,-0.0835 0.2164,-0.0134 0.43304,-0.036 0.63613,-0.11774 0.12133,-0.0477 0.0647,-0.0267 0.18808,-0.0701 0.0324,-0.0114 0.12615,-0.0523 0.0971,-0.034 -1.24643,0.7816 -0.79881,0.47678 -0.52835,0.30503 0.15158,-0.10838 0.30421,-0.21075 0.45656,-0.31757 0.1695,-0.12678 0.31314,-0.28261 0.45629,-0.43844 0.38979,-0.40375 0.80355,-0.67945 1.33468,-0.92518 0.18658,-0.0848 0.37956,-0.15968 0.5827,-0.1934 0.25194,-0.0492 0.50198,-0.0673 0.75916,-0.0535 0.28613,4.2e-4 0.57273,-0.002 0.85826,0.0198 0.3262,0.0287 0.65072,0.074 0.96551,0.16775 0.31048,0.0784 0.62331,0.14569 0.93677,0.21048 0.28852,0.08 0.58191,0.14122 0.86513,0.23986 0.18953,0.058 0.37134,0.13626 0.55125,0.21916 0.11517,0.0417 0.23652,0.0903 0.30974,0.1936 0.0401,0.11636 0.0938,0.22468 0.16569,0.32505 0.0919,0.17323 0.21306,0.32294 0.34998,0.46326 0.12281,0.12554 0.2245,0.27137 0.35992,0.38446 0.18531,0.15049 0.4344,0.18834 0.65715,0.25517 0.47691,0.11151 0.94271,0.26428 1.41879,0.37949 0.49601,0.1205 0.99098,0.26152 1.50113,0.307 0.20949,0.29601 -0.53805,0.82505 -0.74754,0.52904 z"
         id="path842"
         style="color:#000000;clip-rule:nonzero;display:inline;overflow:visible;visibility:visible;opacity:1;isolation:auto;mix-blend-mode:normal;color-interpolation:sRGB;color-interpolation-filters:linearRGB;solid-color:#000000;solid-opacity:1;fill:#ffffff;fill-opacity:1;fill-rule:nonzero;stroke:none;stroke-width:0.25;stroke-linecap:round;stroke-linejoin:round;stroke-miterlimit:4;stroke-dasharray:none;stroke-dashoffset:0;stroke-opacity:1;color-rendering:auto;image-rendering:auto;shape-rendering:auto;text-rendering:auto;enable-background:accumulate" />
      <path
         inkscape:connector-curvature="0"
         d="m 78.582479,273.14679 c 0.07995,-0.34267 0.155768,-0.68606 0.2104,-1.03376 0.02455,-0.17838 0.03301,-0.39382 -0.09241,-0.53699 -0.167135,-0.10253 -0.347366,-0.17946 -0.528913,-0.25216 -0.239564,-0.0859 -0.4944,-0.10101 -0.746275,-0.11182 -0.397045,-0.006 -0.794679,-0.0214 -1.1908,0.01 -0.475181,0.0569 -0.952579,0.0851 -1.430639,0.10142 -0.553395,0.021 -1.107721,-0.004 -1.660356,0.0319 -0.495109,0.0186 -0.979995,0.11856 -1.469485,0.18525 -0.288885,0.0573 -0.566507,0.1491 -0.844603,0.24358 0.165322,-0.13957 -0.485479,0.26576 -0.262797,0.13769 1.396108,-0.80297 0.856276,-0.54347 0.626835,-0.34174 -0.117327,0.12757 -0.125087,0.29429 -0.136049,0.45864 -0.0078,0.17119 -0.0069,0.34261 -0.0052,0.51392 0.0073,0.0541 0.04718,0.0882 0.0823,0.12622 0.188722,0.31193 -0.599019,0.78853 -0.787741,0.4766 v 0 c -0.04836,-0.0558 -0.09904,-0.10931 -0.114898,-0.18426 -1.61e-4,-0.17357 -2.59e-4,-0.34721 0.0063,-0.52068 0.0075,-0.17574 0.0048,-0.36118 0.107529,-0.5124 0.264112,-0.38821 0.791702,-0.51939 1.207328,-0.71648 0.278342,-0.0925 0.558731,-0.1784 0.849069,-0.22552 0.488733,-0.0682 0.97468,-0.15902 1.469237,-0.17609 0.553979,-0.0277 1.109059,-0.009 1.663361,-0.0317 0.477904,-0.0188 0.954468,-0.0534 1.430049,-0.10458 0.400447,-0.0235 0.801899,-0.0152 1.202798,-0.005 0.260044,0.0143 0.521751,0.0386 0.766117,0.13588 0.19249,0.0805 0.391174,0.1575 0.555393,0.28932 0.133066,0.17078 0.156651,0.39647 0.125732,0.60712 -0.05699,0.34637 -0.129421,0.68971 -0.209402,1.03149 0.160256,0.32586 -0.66268,0.73057 -0.822936,0.4047 z"
         id="path844"
         style="color:#000000;clip-rule:nonzero;display:inline;overflow:visible;visibility:visible;opacity:1;isolation:auto;mix-blend-mode:normal;color-interpolation:sRGB;color-interpolation-filters:linearRGB;solid-color:#000000;solid-opacity:1;fill:#ffffff;fill-opacity:1;fill-rule:nonzero;stroke:none;stroke-width:0.25;stroke-linecap:round;stroke-linejoin:round;stroke-miterlimit:4;stroke-dasharray:none;stroke-dashoffset:0;stroke-opacity:1;color-rendering:auto;image-rendering:auto;shape-rendering:auto;text-rendering:auto;enable-background:accumulate" />
      <path
         inkscape:connector-curvature="0"
         d="m 77.184961,271.79929 c -0.292103,0.12553 -0.921658,0.47977 0.338584,-0.21876 0.0451,-0.025 -0.08807,0.0538 -0.12991,0.084 -0.05846,0.0421 -0.156676,0.12912 -0.211918,0.17693 -0.486386,0.4524 -0.976252,0.64029 -1.585746,0.68065 -0.399462,0.0147 -0.799354,0.0112 -1.199015,0.01 -0.436496,-10e-4 -0.872992,-0.003 -1.309491,-0.003 -0.362982,0.008 -0.722951,-0.0542 -1.082239,-0.0986 -0.124584,-0.0163 -0.249999,-0.0274 -0.375624,-0.0311 -0.0061,-4e-5 -0.0123,-8e-5 -0.01844,-1.2e-4 -0.213931,-0.2971 0.536353,-0.83736 0.750284,-0.54026 v 0 c 0.0062,5.3e-4 0.01233,10e-4 0.0185,10e-4 0.124777,0.01 0.249385,0.0226 0.373194,0.0412 0.354375,0.0482 0.70997,0.1045 1.06879,0.0939 0.436962,8e-4 0.873924,2.7e-4 1.310883,0.002 0.399116,8e-4 0.798741,0.006 1.197359,-0.0177 0.153337,-0.014 0.307851,-0.0253 0.455348,-0.0735 0.04163,-0.0136 0.15884,-0.0727 0.121759,-0.0494 -1.31553,0.82657 -0.798471,0.4803 -0.573736,0.32843 0.07122,-0.061 0.136403,-0.12896 0.209449,-0.18773 0.405022,-0.32587 0.888929,-0.55194 1.360946,-0.76653 0.224993,0.28469 -0.493956,0.85289 -0.718953,0.5682 z"
         id="path846"
         style="color:#000000;clip-rule:nonzero;display:inline;overflow:visible;visibility:visible;opacity:1;isolation:auto;mix-blend-mode:normal;color-interpolation:sRGB;color-interpolation-filters:linearRGB;solid-color:#000000;solid-opacity:1;fill:#ffffff;fill-opacity:1;fill-rule:nonzero;stroke:none;stroke-width:0.25;stroke-linecap:round;stroke-linejoin:round;stroke-miterlimit:4;stroke-dasharray:none;stroke-dashoffset:0;stroke-opacity:1;color-rendering:auto;image-rendering:auto;shape-rendering:auto;text-rendering:auto;enable-background:accumulate" />
      <path
         inkscape:connector-curvature="0"
         d="m 70.022481,271.95967 c -0.445738,-0.16126 -0.899946,-0.30014 -1.355164,-0.43232 -0.461891,-0.1207 -0.927632,-0.22286 -1.394291,-0.32318 -0.419319,-0.0792 -0.844669,-0.10404 -1.266243,-0.16741 -0.462624,-0.0505 -0.921326,-0.12722 -1.384554,-0.17328 -0.509955,-0.0444 -1.022098,-0.0506 -1.533636,-0.0552 -0.440539,-0.0245 -0.875829,0.0199 -1.313233,0.0628 -0.45153,0.0469 -0.905621,0.0582 -1.359183,0.0659 -0.428731,0.0129 -0.858292,-0.0115 -1.285967,0.023 -0.499745,0.0548 -1.001509,0.0824 -1.503791,0.0987 -0.416092,0.0264 -0.835753,-0.0104 -1.250199,0.0354 -0.330253,0.0447 -0.65967,0.0748 -0.985901,0.14326 -0.330398,0.0715 -0.669216,0.0847 -1.005948,0.0948 -0.496851,-0.003 -0.965335,-0.15968 -1.438508,-0.29026 -0.394438,-0.11249 -0.798714,-0.23925 -1.214991,-0.21337 -0.09643,0.006 -0.190912,0.0299 -0.286369,0.0448 -0.213831,-0.28635 0.509313,-0.82636 0.723143,-0.54001 v 0 c 0.09832,-0.0106 0.196107,-0.0294 0.294969,-0.0317 0.420986,-0.0102 0.827354,0.11866 1.227793,0.22939 0.468807,0.12914 0.93675,0.27342 1.429065,0.26311 0.335063,-0.0137 0.670981,-0.0337 0.999077,-0.10834 0.327504,-0.0639 0.659691,-0.0906 0.990338,-0.13406 0.415084,-0.0292 0.832239,-0.007 1.247902,-0.0275 0.502486,-0.0184 1.003962,-0.051 1.504188,-0.10296 0.429059,-0.0253 0.859049,-0.009 1.288659,-0.0192 0.452249,-0.009 0.904748,-0.0234 1.35483,-0.0718 0.438817,-0.0441 0.876483,-0.0763 1.318088,-0.054 0.512982,0.006 1.026597,0.015 1.537751,0.0624 0.464754,0.0487 0.926272,0.12176 1.390578,0.17411 0.422294,0.0621 0.849265,0.0862 1.26777,0.1737 0.467246,0.10257 0.934402,0.204 1.396111,0.32983 0.456586,0.13565 0.911397,0.27732 1.364128,0.42536 0.205131,0.29953 -0.551283,0.81756 -0.756412,0.51804 z"
         id="path848"
         style="color:#000000;clip-rule:nonzero;display:inline;overflow:visible;visibility:visible;opacity:1;isolation:auto;mix-blend-mode:normal;color-interpolation:sRGB;color-interpolation-filters:linearRGB;solid-color:#000000;solid-opacity:1;fill:#ffffff;fill-opacity:1;fill-rule:nonzero;stroke:none;stroke-width:0.25;stroke-linecap:round;stroke-linejoin:round;stroke-miterlimit:4;stroke-dasharray:none;stroke-dashoffset:0;stroke-opacity:1;color-rendering:auto;image-rendering:auto;shape-rendering:auto;text-rendering:auto;enable-background:accumulate" />
      <path
         inkscape:connector-curvature="0"
         d="m 51.108231,270.65779 c -0.131403,-0.003 -0.221139,-0.0112 -0.353489,0.0157 -0.33116,0.0672 -1.289462,0.63516 -0.03651,-0.0686 -0.339865,0.23131 -0.599355,0.54148 -0.832602,0.87437 -0.111281,0.15672 -0.202673,0.32472 -0.249597,0.51155 -0.01154,0.11607 0.02984,0.22326 0.02204,0.34246 -0.0013,0.17057 -0.08116,0.27401 -0.20814,0.37966 -0.294002,0.16879 -0.588007,0.33758 -0.88201,0.50636 -0.227274,-0.2833 0.488191,-0.85726 0.715466,-0.57395 v 0 c -0.228981,0.13513 -0.457965,0.27026 -0.686946,0.40539 0.125087,-0.0779 0.234762,-0.14939 0.23563,-0.30777 0.0199,-0.12662 -0.02098,-0.22713 -0.02461,-0.35047 0.03169,-0.20143 0.127833,-0.38182 0.240556,-0.54974 0.241353,-0.33464 0.483322,-0.66438 0.823611,-0.90979 0.619024,-0.36213 1.230752,-0.86265 1.986089,-0.80364 0.209257,0.29679 -0.540236,0.82524 -0.749495,0.52846 z"
         id="path850"
         style="color:#000000;clip-rule:nonzero;display:inline;overflow:visible;visibility:visible;opacity:1;isolation:auto;mix-blend-mode:normal;color-interpolation:sRGB;color-interpolation-filters:linearRGB;solid-color:#000000;solid-opacity:1;fill:#ffffff;fill-opacity:1;fill-rule:nonzero;stroke:none;stroke-width:0.25;stroke-linecap:round;stroke-linejoin:round;stroke-miterlimit:4;stroke-dasharray:none;stroke-dashoffset:0;stroke-opacity:1;color-rendering:auto;image-rendering:auto;shape-rendering:auto;text-rendering:auto;enable-background:accumulate" />
      <path
         inkscape:connector-curvature="0"
         d="m 49.006836,271.5347 c -0.297368,0.13374 -0.604599,0.23928 -0.9256,0.29654 -0.310771,0.096 -0.634685,0.12715 -0.957442,0.15075 -0.327308,-0.024 -0.652592,-0.0675 -0.980088,-0.091 -0.159933,-0.0181 -0.334748,0.0309 -0.440822,-0.1072 -0.09029,-0.18152 -0.05809,-0.37284 -0.02016,-0.56254 0.03738,-0.18962 0.08501,-0.32494 -0.01421,-0.49825 -0.137954,-0.10652 -0.270851,-0.22846 -0.416822,-0.32671 -0.157154,-0.11856 -0.297352,-0.25587 -0.453059,-0.37757 -0.204581,-0.12735 -0.417761,-0.1922 -0.65442,-0.23031 -0.354976,-0.0419 -0.713579,-0.0378 -1.070468,-0.0403 -0.518887,-10e-4 -1.037785,-7.7e-4 -1.556673,6e-4 -0.456816,-0.0359 -0.912172,-0.0841 -1.369862,-0.10886 -0.349572,-0.003 -0.703617,-0.0474 -1.051388,-0.001 -0.1304,0.004 -0.239834,0.0606 -0.3547,0.11327 -0.02959,0.0136 -0.117679,0.0553 -0.08957,0.0389 0.792046,-0.46256 0.917702,-0.57418 0.651092,-0.351 -0.115639,0.11936 -0.112279,0.24155 -0.07813,0.39288 0.05362,0.16101 0.03438,0.31546 -0.0016,0.47632 -0.03043,0.10131 -0.02959,0.0925 0.04822,0.16259 0.191836,0.30969 -0.590251,0.79415 -0.782088,0.48446 v 0 c -0.08451,-0.0773 -0.144867,-0.13301 -0.0962,-0.24832 0.03781,-0.14925 0.07711,-0.28674 0.02215,-0.43887 -0.04084,-0.16996 -0.07122,-0.32166 0.03997,-0.47399 0.282223,-0.38512 0.889296,-0.62179 1.375021,-0.70099 0.351192,-0.0251 0.704004,0.005 1.055346,0.0161 0.455645,0.0271 0.908929,0.0799 1.364517,0.10624 0.519616,1.2e-4 1.039228,-0.002 1.558843,-10e-4 0.361786,10e-4 0.726181,-0.003 1.085025,0.0489 0.246216,0.0473 0.47263,0.12558 0.682649,0.26585 0.152961,0.12198 0.291092,0.26002 0.450141,0.37333 0.152048,0.11095 0.305842,0.22881 0.438684,0.36041 0.115858,0.20096 0.09217,0.33566 0.04348,0.55758 -0.03297,0.16331 -0.08423,0.32582 -0.01534,0.48805 0.08669,0.083 0.29079,0.007 0.393498,0.0508 0.323721,0.0262 0.646097,0.075 0.970958,0.0801 0.32213,-0.0273 0.64103,-0.0729 0.953026,-0.16045 0.316847,-0.0673 0.620342,-0.17897 0.915109,-0.31297 0.224994,0.28469 -0.493956,0.85289 -0.718952,0.5682 z"
         id="path852"
         style="color:#000000;clip-rule:nonzero;display:inline;overflow:visible;visibility:visible;opacity:1;isolation:auto;mix-blend-mode:normal;color-interpolation:sRGB;color-interpolation-filters:linearRGB;solid-color:#000000;solid-opacity:1;fill:#ffffff;fill-opacity:1;fill-rule:nonzero;stroke:none;stroke-width:0.25;stroke-linecap:round;stroke-linejoin:round;stroke-miterlimit:4;stroke-dasharray:none;stroke-dashoffset:0;stroke-opacity:1;color-rendering:auto;image-rendering:auto;shape-rendering:auto;text-rendering:auto;enable-background:accumulate" />
      <path
         inkscape:connector-curvature="0"
         d="m 38.540523,270.92237 c -0.390221,-0.0595 -0.784257,-0.0841 -1.178266,-0.10021 -0.420101,-7e-5 -0.839754,-0.0362 -1.25222,-0.11613 -0.362207,-0.0822 -0.731105,-0.12474 -1.101313,-0.14703 -0.360185,-0.027 -0.716698,-0.0146 -1.074766,0.0255 -0.411414,0.0517 -0.825873,0.0724 -1.240084,0.0845 -0.363167,-0.0292 -0.723823,-0.0784 -1.087585,-0.1017 -0.363083,-0.0199 -0.726811,-0.021 -1.090325,-0.0228 -0.387506,-7.9e-4 -0.775014,-7.9e-4 -1.162521,-5.3e-4 -0.392755,-0.0174 -0.779711,0.007 -1.167616,0.0665 -0.258435,0.0647 -0.513996,0.0112 -0.772293,-0.0208 -0.311607,-0.0322 -0.625115,-0.038 -0.938101,-0.0425 -0.350751,0.0468 -0.701706,0.0864 -1.055006,0.10743 -0.350398,0.017 -0.694473,0.0895 -1.043804,0.12275 -0.37851,0.0138 -0.751526,0.0793 -1.128249,0.11473 -0.422155,0.0459 -0.847347,0.0906 -1.265665,0.1656 -0.268428,0.0597 -0.537389,0.11243 -0.811011,0.14006 -0.147991,0.01 -0.296439,0.0127 -0.444744,0.0134 -0.0347,-1.3e-4 -0.01892,4e-5 -0.04733,-5.3e-4 -0.214832,-0.29645 0.533815,-0.83898 0.748647,-0.54253 v 0 c 0.02699,2.2e-4 0.01195,1.1e-4 0.04512,2.6e-4 0.145267,-2.1e-4 0.290735,-0.003 0.435336,-0.0183 0.269599,-0.0305 0.534313,-0.089 0.800708,-0.13932 0.42078,-0.067 0.845024,-0.11857 1.26894,-0.16029 0.377057,-0.0397 0.751877,-0.099 1.130999,-0.11689 0.348528,-0.0371 0.693312,-0.10771 1.044245,-0.11907 0.354929,-0.0252 0.706812,-0.075 1.06129,-0.1028 0.315785,0.006 0.632105,0.0135 0.94625,0.0487 0.25354,0.0318 0.502968,0.0633 0.755952,0.003 0.389676,-0.0519 0.779351,-0.0654 1.172456,-0.0541 0.388115,-3e-5 0.776229,-0.001 1.164344,-2.9e-4 0.364506,0.002 0.729255,0.006 1.093205,0.0277 0.361143,0.0255 0.719394,0.0798 1.081101,0.0952 0.413022,-0.0145 0.825857,-0.0375 1.236051,-0.0901 0.3615,-0.0378 0.722847,-0.0405 1.085654,-0.0139 0.371933,0.0264 0.741434,0.0766 1.105893,0.15665 0.411316,0.0707 0.826748,0.10655 1.24429,0.10642 0.397939,0.0182 0.795121,0.0484 1.189919,0.10296 0.209256,0.29678 -0.540237,0.82524 -0.749496,0.52846 z"
         id="path856"
         style="color:#000000;clip-rule:nonzero;display:inline;overflow:visible;visibility:visible;opacity:1;isolation:auto;mix-blend-mode:normal;color-interpolation:sRGB;color-interpolation-filters:linearRGB;solid-color:#000000;solid-opacity:1;fill:#ffffff;fill-opacity:1;fill-rule:nonzero;stroke:none;stroke-width:0.25;stroke-linecap:round;stroke-linejoin:round;stroke-miterlimit:4;stroke-dasharray:none;stroke-dashoffset:0;stroke-opacity:1;color-rendering:auto;image-rendering:auto;shape-rendering:auto;text-rendering:auto;enable-background:accumulate" />
      <path
         id="path858"
         inkscape:connector-curvature="0"
         d="m 21.645742,270.91985 c -0.15838,-0.32388 -0.289881,-0.65952 -0.414556,-0.99749 -0.06738,-0.16093 -0.125505,-0.32612 -0.296448,-0.39518 -0.191349,-0.0454 -0.390292,-0.0422 -0.585821,-0.0431 -0.335943,-0.0105 -0.668266,0.004 -1.001915,0.0425 -0.375169,0.0658 -0.750141,0.0968 -1.13128,0.10062 -0.312703,0.0195 -0.616106,-0.012 -0.922043,-0.0714 -0.214356,-0.0639 -0.420681,-0.008 -0.634429,0.022 -0.405381,0.0218 -1.242412,0.55685 0.138709,-0.22365 -0.15599,0.11279 -0.3019,0.23967 -0.43271,0.38091 -0.130962,0.15908 -0.232426,0.33862 -0.325767,0.52148 -0.09121,0.19565 -0.125962,0.40822 -0.144018,0.62138 -0.01007,0.14419 -0.0101,0.28884 -0.0093,0.43331 -0.0035,0.0771 -0.02719,0.14948 -0.05123,0.22187 0.153868,0.33065 -0.681157,0.71923 -0.835024,0.38857 v 0 c 0.02617,-0.0627 0.05174,-0.12574 0.06652,-0.19235 -3.7e-4,-0.14703 -0.0036,-0.29431 0.0074,-0.44108 0.01727,-0.22235 0.0461,-0.44433 0.130785,-0.65275 0.08811,-0.19123 0.194776,-0.3706 0.31343,-0.54448 0.130833,-0.14826 0.273402,-0.27782 0.424605,-0.40521 0.497048,-0.2869 0.889237,-0.60336 1.450979,-0.65795 0.219756,-0.033 0.432716,-0.0601 0.651358,0.004 0.300615,0.0572 0.601434,0.0726 0.907556,0.0587 0.378342,-0.008 0.750646,-0.0487 1.124458,-0.10611 0.33774,-0.0351 0.675366,-0.0447 1.014892,-0.0386 0.205036,0.003 0.417082,0.002 0.611134,0.0763 0.176938,0.10281 0.258207,0.27027 0.330169,0.45698 0.115439,0.33934 0.242255,0.67567 0.411578,0.99242 0.177689,0.31638 -0.621296,0.76511 -0.798985,0.44873 z"
         style="color:#000000;clip-rule:nonzero;display:inline;overflow:visible;visibility:visible;opacity:1;isolation:auto;mix-blend-mode:normal;color-interpolation:sRGB;color-interpolation-filters:linearRGB;solid-color:#000000;solid-opacity:1;fill:#ffffff;fill-opacity:1;fill-rule:nonzero;stroke:none;stroke-width:0.25;stroke-linecap:round;stroke-linejoin:round;stroke-miterlimit:4;stroke-dasharray:none;stroke-dashoffset:0;stroke-opacity:1;color-rendering:auto;image-rendering:auto;shape-rendering:auto;text-rendering:auto;enable-background:accumulate" />
      <path
         inkscape:connector-curvature="0"
         d="m 14.860315,271.71612 c -0.472122,-0.0702 -0.949853,-0.087 -1.426253,-0.10164 -0.622441,-0.0147 -1.245114,-0.0149 -1.867695,-0.0151 -0.565768,-0.0132 -1.131629,0.0234 -1.6918449,0.10179 -0.4785502,0.0581 -0.9486177,0.16447 -1.4252926,0.23445 -0.2846176,0.0691 -0.5627055,0.0256 -0.8456679,-0.0195 -0.1648373,0.009 -0.3282849,0.0356 -0.4887066,0.0738 -0.089573,0.0327 -0.1416243,-0.0944 -0.1723482,-0.16562 -0.080062,-0.18633 -0.195498,-0.35583 -0.3208227,-0.51434 -0.1501494,-0.17728 -0.323302,-0.33235 -0.5070935,-0.47354 -0.1517176,-0.16805 -0.3315708,-0.27321 -0.531015,-0.37289 -0.3144708,-0.13012 -0.65571,-0.15257 -0.9914004,-0.17208 -0.3965593,-0.0188 -0.7893436,-0.0818 -1.185409,-0.11262 -0.3874169,-0.003 -0.7689998,-0.0488 -1.1527588,-0.0956 -0.3930473,-0.0445 -0.7885853,-0.057 -1.1837563,-0.0644 -0.24050005,-0.004 -0.48102482,-0.002 -0.72153961,-0.002 -0.21251244,0.0513 -0.42833793,0.0842 -0.64462212,0.11447 -0.21571135,0.26928 -0.0234267,0.0253 0.76955509,-0.52565 0.21062584,0.29834 -0.54280936,0.83025 -0.75343519,0.53191 v 0 c 0.6998128,-0.56433 0.39703633,-0.58146 0.71961419,-0.55666 0.21797851,-0.0307 0.43288616,-0.0794 0.65145924,-0.10371 0.2392781,-1.9e-4 0.4785834,10e-4 0.7177905,0.007 0.3966796,0.0104 0.7936295,0.026 1.1880119,0.0725 0.3827053,0.047 0.7646948,0.0816 1.1504094,0.0928 0.39545,0.0338 0.788335,0.0954 1.1850878,0.11088 0.3456472,0.0242 0.695911,0.055 1.015909,0.19934 0.2042596,0.10129 0.3831449,0.22282 0.5423556,0.38785 0.186241,0.14959 0.3656272,0.30773 0.5179761,0.49275 0.1288253,0.16631 0.2507951,0.34028 0.3370358,0.533 0.00217,0.005 0.039883,0.10438 0.064775,0.095 0.00911,-0.003 -0.00895,-0.0173 -0.013422,-0.0259 0.031428,-0.006 0.013981,-0.003 0.052349,-0.0105 0.1660488,-0.0309 0.3352882,-0.0585 0.5045874,-0.0436 0.2755304,0.0438 0.5464082,0.0639 0.822443,0.002 0.4748731,-0.0727 0.9448698,-0.17428 1.4223938,-0.23035 0.562789,-0.0703 1.129231,-0.10601 1.696618,-0.0904 0.62352,10e-4 1.247115,10e-4 1.870494,0.0164 0.482295,0.0155 0.96516,0.0355 1.443714,0.10154 0.209257,0.29678 -0.540237,0.82523 -0.749495,0.52845 z"
         id="path862"
         style="color:#000000;clip-rule:nonzero;display:inline;overflow:visible;visibility:visible;opacity:1;isolation:auto;mix-blend-mode:normal;color-interpolation:sRGB;color-interpolation-filters:linearRGB;solid-color:#000000;solid-opacity:1;fill:#ffffff;fill-opacity:1;fill-rule:nonzero;stroke:none;stroke-width:0.25;stroke-linecap:round;stroke-linejoin:round;stroke-miterlimit:4;stroke-dasharray:none;stroke-dashoffset:0;stroke-opacity:1;color-rendering:auto;image-rendering:auto;shape-rendering:auto;text-rendering:auto;enable-background:accumulate" />
    </g>
  </g>
</svg>
